<?xml version="1.0" encoding="UTF-8"?>
<svg id="_レイヤー_2" data-name="レイヤー 2" xmlns="http://www.w3.org/2000/svg" viewBox="0 0 158 35.97">
  <defs>
    <style>
      .cls-1 {
        fill: #844b53;
      }
    </style>
  </defs>
  <g id="_レイヤー_1-2" data-name="レイヤー 1">
    <g>
      <path class="cls-1" d="M67.83,5.86c0-3.44,2.41-5.65,6.68-5.65s8.37,2.77,9.92,7.96l.56,1.8h.15V0h-.1c-1.18,1.44-2.26,2.47-3.13,2.47-.51,0-1.03-.26-1.7-.72-1.8-1.18-3.7-1.75-5.86-1.75-5.6,0-10.12,3.65-10.12,9.09,0,11.56,19.01,9.45,19.01,19.88,0,4.73-3.44,6.78-8.02,6.78-7.09,0-10.33-5.34-11.66-9.4l-.37-1.13c.98-2.22,1.52-4.67,1.52-7.24,0-9.93-8.05-17.98-17.98-17.98s-17.98,8.05-17.98,17.98,8.05,17.98,17.98,17.98c7.02,0,13.09-4.02,16.05-9.88v9.88h.1c1.28-1.64,2.47-2.77,3.6-2.77.67,0,1.13.26,1.9.77,2.36,1.54,4.57,2,6.89,2,6.78,0,11.82-3.8,11.82-9.45,0-12.13-19.27-10.02-19.27-20.65ZM46.74,35.68c-7.21,0-13.06-7.92-13.06-17.69S39.53.29,46.74.29s13.06,7.92,13.06,17.69-5.85,17.69-13.06,17.69Z"/>
      <path class="cls-1" d="M28.5,29.59c-.51-.87-2.11-3.6-2.72-4.57-2.31-3.6-4.88-5.89-10.69-7.38,2.93.1,5.39-.05,7.86-.93,3.55-1.28,6.22-3.81,6.22-7.56C29.17,3.35,24.03.67,17.86.67H0v.15l1.08.05c2.52.1,2.98.72,2.98,7.76v18.7c0,7.04-.46,7.66-2.98,7.76l-1.08.05v.15h12.79v-.15l-1.08-.05c-2.52-.1-2.98-.72-2.98-7.76v-9.69h4.55c3.49,0,4.17,1.32,7.3,6.81.92,1.59,2.47,4.68,3.49,6.58,1.08,2,1.7,3.29,2.16,4.26h8.53v-.15l-.93-.05c-1.9-.1-3.44-2.36-5.34-5.5ZM8.73,17.44v-8.8c0-6.94.15-7.76,2.41-7.76h6.72c3.8,0,6.06,2.78,6.06,8.38,0,4.62-1.08,8.18-6.11,8.18h-9.08Z"/>
      <path class="cls-1" d="M157.07,35.09c-1.9-.1-3.44-2.36-5.34-5.5-.51-.87-2.11-3.6-2.72-4.57-2.31-3.6-4.88-5.89-10.69-7.38,2.93.1,5.39-.05,7.86-.93,3.55-1.28,6.22-3.81,6.22-7.56,0-5.81-5.14-8.49-11.3-8.49h-55.57v.15l1.08.05c2.52.1,2.98.72,2.98,7.76v18.7c0,7.04-.46,7.66-2.98,7.76l-1.08.05v.15h50.5v-.15l-1.08-.05c-2.52-.1-2.98-.72-2.98-7.76v-9.69h4.55c3.49,0,4.17,1.32,7.3,6.81.92,1.59,2.47,4.68,3.49,6.58,1.08,2,1.7,3.29,2.16,4.26h8.53v-.15l-.93-.05ZM101.16,27.33c0,7.04-.46,7.66-2.98,7.76l-.47.02-.47-.02c-2.52-.1-2.98-.72-2.98-7.76V8.63c0-7.04.46-7.66,2.98-7.76l.47-.02.47.02c2.52.1,2.98.72,2.98,7.76v18.7ZM127.29,27.33c0,7.04-.46,7.66-2.98,7.76l-1,.05v-10.68h-.15l-.56,1.75c-2.57,7.91-5.45,8.89-10.48,8.89h-3.85c-2.26,0-2.41-.82-2.41-7.76v-9.71h4.6c2.52,0,5.19.31,6.37,4.62l.31,1.13h.15v-11.71h-.15l-.31,1.13c-1.18,4.32-3.85,4.62-6.37,4.62h-4.6v-8.79c0-6.94.15-7.76,2.41-7.76h3.85c4.68,0,8.32.72,10.48,7.35l.56,1.75h.15V.83l1,.05c2.52.1,2.98.72,2.98,7.76v18.7ZM131.97,17.44v-8.8c0-6.94.15-7.76,2.41-7.76h6.72c3.8,0,6.06,2.78,6.06,8.38,0,4.62-1.08,8.18-6.11,8.18h-9.08Z"/>
    </g>
  </g>
</svg>