<svg xmlns="http://www.w3.org/2000/svg" version="1.1" viewBox="0 0 1080 1080">
  <defs>
    <style>
      .cls-1 {
        fill: #291313;
      }
    </style>
  </defs>
  
  <g>
    <g id="_レイヤー_1" data-name="レイヤー_1">
      <g>
        <path class="cls-1" d="M540,357.15c-6.2,0-11.25-5.05-11.25-11.25s5.05-11.25,11.25-11.25,11.25,5.05,11.25,11.25-5.05,11.25-11.25,11.25ZM540,340.65c-2.89,0-5.25,2.35-5.25,5.25s2.36,5.25,5.25,5.25,5.25-2.35,5.25-5.25-2.36-5.25-5.25-5.25Z"></path>
        <path class="cls-1" d="M534.08,372.03c-2.71,0-5.39-.06-8.79-.33-1.65-.13-2.88-1.58-2.75-3.23.13-1.65,1.56-2.89,3.23-2.75,4.29.34,7.26.32,11.03.29,1.05,0,2.14-.01,3.33-.01,5.63,0,10.58-.02,14.1-.33,1.68-.14,3.1,1.08,3.25,2.73.14,1.65-1.08,3.1-2.73,3.25-3.76.32-8.84.35-14.62.35-1.17,0-2.26,0-3.29.01-.94,0-1.85.01-2.75.01Z"></path>
        <path class="cls-1" d="M589.24,695.71c-.32,0-.65-.05-.97-.16-11.24-3.83-17.34-4.77-27.59-5.56-10.83-.83-30.54-.83-41.37,0-10.25.79-16.35,1.74-27.59,5.56-1.57.54-3.27-.3-3.81-1.87s.3-3.27,1.87-3.81c11.86-4.04,18.28-5.03,29.06-5.86,11.06-.85,31.22-.85,42.29,0,10.78.83,17.21,1.83,29.06,5.86,1.57.53,2.41,2.24,1.87,3.81-.42,1.25-1.59,2.03-2.84,2.03Z"></path>
        <g>
          <path class="cls-1" d="M531.04,338.83s-.06-.15-.18-.34l6.88-4.08c.3.5.53.97.72,1.45l-7.43,2.98Z"></path>
          <path class="cls-1" d="M391.67,507.06l-6.57-4.57c.13-.19.17-.27.17-.27,0,.01-.02.06-.03.12l7.9,1.24c-.19,1.2-.66,2.31-1.47,3.49ZM384.99,500.5c-.11-.82-.18-1.57-.21-2.35l5.51-.24-1.68-6.3c.77-.21,1.64-.31,2.92-.35l.19,6.58,1.05-.05c.03.71.1,1.28.15,1.64l-7.93,1.06ZM394.73,499.22l-.13-8c.58,0,1.19-.03,1.81-.07l.52,7.98c-.75.05-1.49.07-2.2.09ZM400.46,498.68l-1.6-7.84c.5-.1.96-.23,1.38-.38l2.71,7.53c-.77.28-1.61.51-2.49.69ZM406.04,496.7l-3.34-7.27c.55-.26,1.08-.51,1.56-.78l3.81,7.03c-.63.34-1.29.67-2.03,1.01ZM411.12,493.73l-4.85-6.36c.4-.3.75-.62,1.09-.95l5.69,5.62c-.59.6-1.24,1.17-1.93,1.69ZM415.45,489.01l-6.76-4.28c.24-.37.47-.79.69-1.22-.01.03-.03.06-.04.1l7.41,3.01c-.07.16-.14.32-.21.47-.33.67-.7,1.32-1.08,1.92ZM417.51,482.42l-7.98-.53c.04-.61.07-1.26.09-1.91l7.99.33c-.03.72-.06,1.43-.1,2.11ZM418.18,477.74l-.31-.79c-.03.15-.06.35-.09.62l-7.95-.87c.13-1.24.34-2.19.65-2.99l7.23,2.82-2.43-6.25s0,0,0,0c0,0,.04-.03.12-.11l5.9,5.41c-.9.98-1.95,1.71-3.12,2.16ZM423.58,471.86l-7.37-3.11c.18-.43.37-.94.56-1.55l7.62,2.44c-.27.85-.54,1.57-.81,2.22ZM425.27,466.61l-7.7-2.18c.2-.69.39-1.37.6-2.04l7.63,2.4c-.19.59-.36,1.21-.54,1.82ZM426.66,462.56l-7.16-3.57c.49-.99,1.04-1.82,1.67-2.54l6.01,5.28c-.11.13-.29.37-.51.82ZM428.1,461.36l-2.79-7.5c.27-.1.5-.23.72-.39l4.85,6.36c-.84.64-1.77,1.15-2.78,1.53ZM433.86,456.44l-6.88-4.08c.21-.35.4-.76.58-1.22l7.45,2.91c-.34.88-.72,1.67-1.15,2.4ZM436.05,450.63l-7.78-1.86c.15-.63.28-1.25.4-1.85l7.83,1.62c-.14.67-.29,1.38-.46,2.08ZM437.52,445.97l-1.36-7.88,1.97-.34,1.37,7.88-1.99.34ZM437.1,445.92l-7.68-2.24c.4-1.36.88-2.37,1.54-3.19l6.26,4.99s.07-.08.1-.14c0,0-.08.15-.21.58ZM442.56,445.07l-1.54-7.85c.61-.12,1.24-.25,1.89-.39l1.7,7.82c-.7.15-1.39.29-2.05.42ZM447.71,443.91l-2.02-7.74c.6-.16,1.2-.32,1.8-.5l2.29,7.66c-.69.21-1.38.4-2.07.58ZM452.91,442.28l-2.83-7.48c.55-.21,1.1-.43,1.62-.67l3.31,7.28c-.65.3-1.36.59-2.1.87ZM458.17,439.7l-4.16-6.35s.01-.03.02-.04l-.21-.32c.41-.26.76-.53,1.07-.8.05-.04.1-.09.15-.13l2.56,3.07,3.57,1.8c-.23.45-.53.85-.91,1.19-.62.55-1.32,1.08-2.08,1.58ZM462.85,435.18l-6.55-4.6c.28-.4.55-.84.81-1.31l7.04,3.8c-.4.74-.84,1.45-1.3,2.11ZM465.61,429.84l-7.49-2.82c.21-.55.39-1.11.56-1.65l7.66,2.32c-.23.75-.47,1.47-.73,2.15ZM467.18,424.49l-7.8-1.76c.15-.65.27-1.28.39-1.86l7.85,1.54c-.13.65-.27,1.35-.43,2.08ZM465.42,421.61c.33-.05.64-.14.91-.26l.02.1c-.31.06-.62.11-.93.16ZM469.75,420.57l-2.48-7.61c.53-.17,1.06-.37,1.57-.58l3.1,7.38c-.71.3-1.45.57-2.19.81ZM468.16,419.67h-.02c.03-.06.05-.12.06-.17-.02.05-.03.1-.05.17ZM465.9,419.09l-5.48-1.4c.6-2.35,1.87-3.69,3.77-3.99.22-.04.44-.07.66-.11l1.06,5.5ZM475.09,418.19l-4-6.93c.48-.28.95-.58,1.4-.89l4.59,6.55c-.64.45-1.31.87-1.99,1.27ZM479.84,414.69l-5.44-5.87c.4-.37.79-.76,1.15-1.17l5.96,5.34c-.53.59-1.09,1.16-1.67,1.7ZM483.69,410.17l-6.64-4.45c.3-.44.58-.91.84-1.39l7.04,3.79c-.38.7-.79,1.39-1.23,2.05ZM486.42,404.72l-7.6-2.49c.15-.47.29-.98.41-1.54l7.82,1.69c-.18.82-.39,1.61-.63,2.34ZM487.57,398.96l-7.96-.8c.06-.59.1-1.18.13-1.78l7.99.35c-.03.75-.08,1.49-.16,2.23ZM479.76,393.66c-.02-.63-.05-1.25-.09-1.85l7.98-.53c.05.7.08,1.43.1,2.16l-8,.22ZM479.41,389.04c-.08-.65-.17-1.26-.27-1.81l4.64-.8-.09.77c.55-.18,1.12-.53,1.58-1.02l1.6-.28.76-6.02c.6.08,1.21.14,1.8.19l-.6,7.98c-.49-.04-1-.09-1.5-.14l.02.14-7.94.99ZM492.66,387.96l-1.05-7.93c.48-.06.95-.16,1.4-.29l2.18,7.7c-.82.23-1.67.41-2.53.52ZM498.83,385.94l-3.9-6.98c.39-.22.77-.47,1.12-.75l4.98,6.26c-.69.55-1.43,1.05-2.21,1.48ZM478.7,385.18c-.22-.47-.36-1.08-.36-1.68,0-2.06,1.54-4.15,4.5-4.15.46,0,1,.04,1.79.14l-.38,3.14,1.72-.79s.03.07.05.1l.06.14-1.85.78-.08.64h-1.44l-4,1.68ZM503.82,381.61l-6.37-4.84c.28-.36.52-.75.74-1.15l7.06,3.77c-.42.78-.9,1.53-1.43,2.23ZM506.67,375.74l-7.72-2.09c.13-.48.25-1.03.36-1.63l7.87,1.43c-.15.82-.32,1.59-.51,2.29ZM507.64,370.2l-7.95-.91.09-.82c.05-.45.09-.86.14-1.22l5.88.74-.41-5.99c.46-.03.99-.06,1.59-.08l.51-.02.29,6.35h.07c-.02.15-.03.29-.05.44l.06,1.2h-.19s-.03.32-.03.32ZM511.07,369.67l-.76-7.96c.58-.06,1.17-.12,1.75-.22l1.24,7.9c-.71.11-1.44.2-2.24.28ZM516.85,368.58l-2.45-7.62c.46-.15.86-.31,1.19-.49l3.78,7.05c-.75.4-1.6.76-2.51,1.05ZM523.06,364.27l-6.67-4.42c.04-.06.09-.15.11-.3l7.89,1.33c-.21,1.23-.66,2.37-1.33,3.39ZM524.55,360.43l-5.6-5.72c.71-.7,1.48-1.23,2.21-1.7l4.37,6.7c-.36.24-.77.51-.98.72ZM528.35,357.74l-5.07-6.19c.35-.29.67-.59.96-.93l6.03,5.26c-.59.67-1.21,1.28-1.92,1.86ZM532.47,352.64l-7.08-3.73c.22-.42.43-.89.63-1.4l7.47,2.87c-.31.8-.65,1.55-1.02,2.25ZM534.51,347.12l-7.72-2.09c.24-.87.53-1.7.86-2.46l7.32,3.23c-.18.4-.33.84-.46,1.32ZM535.99,344.14l-6.22-5.03c.34-.42.67-.78.97-1.12.14-.16.28-.31.4-.45l6.12,5.15c-.18.21-.38.43-.59.67-.21.23-.44.49-.68.78Z"></path>
          <path class="cls-1" d="M388.37,510.74l-5.58-5.73c.23-.23.45-.45.66-.65l5.69,5.62c-.24.24-.49.49-.77.76Z"></path>
        </g>
        <path class="cls-1" d="M477.18,801.54c-.24,0-.48-.03-.72-.09-1.61-.39-2.59-2.02-2.2-3.63,10.7-43.65,7.04-92.05-10.87-143.88-15.24-44.09-40.8-90.8-75.96-138.83-.98-1.34-.69-3.21.65-4.19,1.34-.98,3.21-.69,4.19.65,35.52,48.51,61.35,95.76,76.79,140.42,18.3,52.93,22.01,102.48,11.03,147.27-.34,1.37-1.56,2.29-2.91,2.29Z"></path>
        <g>
          <path class="cls-1" d="M313.16,420.73c.3.17.6.35.89.53l-2.73,3.57c-.24-.22-.47-.44-.7-.67l2.54-3.43Z"></path>
          <polygon class="cls-1" points="315.79 422.41 317.47 423.61 314.21 427.52 312.77 426.17 315.79 422.41"></polygon>
          <polygon class="cls-1" points="319.1 424.88 320.67 426.2 317.14 430.2 315.67 428.87 319.1 424.88"></polygon>
          <polygon class="cls-1" points="322.22 427.55 323.74 428.92 320.07 432.9 318.61 431.54 322.22 427.55"></polygon>
          <polygon class="cls-1" points="325.25 430.3 326.75 431.7 322.94 435.66 321.51 434.27 325.25 430.3"></polygon>
          <polygon class="cls-1" points="328.23 433.11 329.68 434.54 325.78 438.46 324.36 437.06 328.23 433.11"></polygon>
          <polygon class="cls-1" points="331.13 435.99 332.56 437.45 328.58 441.31 327.19 439.88 331.13 435.99"></polygon>
          <polygon class="cls-1" points="333.97 438.92 335.38 440.4 331.34 444.2 329.97 442.75 333.97 438.92"></polygon>
          <polygon class="cls-1" points="336.77 441.9 338.15 443.41 334.05 447.13 332.7 445.66 336.77 441.9"></polygon>
          <polygon class="cls-1" points="339.52 444.92 340.87 446.45 336.72 450.11 335.39 448.61 339.52 444.92"></polygon>
          <polygon class="cls-1" points="342.22 447.99 343.54 449.54 339.33 453.13 338.03 451.61 342.22 447.99"></polygon>
          <polygon class="cls-1" points="344.84 451.07 346.16 452.58 341.98 456.22 340.65 454.68 344.84 451.07"></polygon>
          <polygon class="cls-1" points="347.48 454.1 348.82 455.61 344.64 459.27 343.32 457.74 347.48 454.1"></polygon>
          <polygon class="cls-1" points="350.16 457.12 351.5 458.64 347.27 462.33 345.96 460.8 350.16 457.12"></polygon>
          <polygon class="cls-1" points="352.84 460.15 354.18 461.68 349.89 465.38 348.59 463.85 352.84 460.15"></polygon>
          <polygon class="cls-1" points="355.52 463.2 356.85 464.74 352.49 468.45 351.2 466.92 355.52 463.2"></polygon>
          <polygon class="cls-1" points="358.17 466.27 359.49 467.82 355.07 471.54 353.79 469.99 358.17 466.27"></polygon>
          <polygon class="cls-1" points="360.81 469.36 362.12 470.92 357.63 474.64 356.35 473.08 360.81 469.36"></polygon>
          <polygon class="cls-1" points="363.42 472.48 364.72 474.04 360.15 477.76 358.89 476.19 363.42 472.48"></polygon>
          <polygon class="cls-1" points="366.01 475.62 367.29 477.19 362.65 480.9 361.41 479.32 366.01 475.62"></polygon>
          <polygon class="cls-1" points="368.56 478.78 369.83 480.37 365.12 484.06 363.89 482.47 368.56 478.78"></polygon>
          <polygon class="cls-1" points="371.09 481.97 372.34 483.58 367.56 487.24 366.34 485.64 371.09 481.97"></polygon>
          <polygon class="cls-1" points="373.57 485.2 374.8 486.83 369.98 490.43 368.78 488.83 373.57 485.2"></polygon>
          <polygon class="cls-1" points="376.01 488.46 377.22 490.1 372.37 493.65 371.18 492.04 376.01 488.46"></polygon>
          <polygon class="cls-1" points="378.41 491.75 379.6 493.41 374.71 496.89 373.55 495.27 378.41 491.75"></polygon>
          <polygon class="cls-1" points="380.77 495.08 381.92 496.76 377.04 500.15 375.88 498.52 380.77 495.08"></polygon>
          <polygon class="cls-1" points="383.04 498.47 384.14 500.19 379.37 503.4 378.21 501.77 383.04 498.47"></polygon>
          <polygon class="cls-1" points="385.21 501.93 386.25 503.69 381.73 506.63 380.55 505.02 385.21 501.93"></polygon>
          <polygon class="cls-1" points="387.26 505.49 387.74 506.39 383.53 509.06 382.93 508.27 387.26 505.49"></polygon>
        </g>
        <path class="cls-1" d="M441.3,748.45c-1.18,0-2.3-.7-2.78-1.86-.63-1.53.1-3.29,1.64-3.91,11.29-4.64,24.05-8.37,32.52-9.52,1.64-.22,3.15.93,3.37,2.57.22,1.64-.93,3.15-2.57,3.38-7.88,1.06-20.36,4.73-31.04,9.12-.37.15-.76.23-1.14.23Z"></path>
        <path class="cls-1" d="M216.49,437.63c-.87,0-1.74-.38-2.33-1.11-1.04-1.29-.85-3.18.44-4.22,25-20.32,50.77-25.56,88.94-18.1.87.17,1.27.07,1.34.02,0,0,.33-.25.53-1.68,2.37-16.95,12.5-58.64,21.65-81.51.62-1.54,2.36-2.29,3.9-1.67,1.54.62,2.29,2.36,1.67,3.9-8.99,22.48-18.95,63.46-21.28,80.11-.14.99-.56,4-2.99,5.74-1.57,1.12-3.58,1.46-5.98.99-36.22-7.08-60.56-2.19-84.01,16.87-.56.45-1.22.67-1.89.67Z"></path>
        <path class="cls-1" d="M540.06,837.3c-4.29,0-24.76-.24-39.34-1.36-6.68-.51-16.33-1.36-24.41-2.48-13.12-1.82-17.37-3.51-18.93-7.55-2.31-5.97-23.48-59.51-55.93-100.76-14.73-18.72-32.45-36.89-51.21-56.12-18.86-19.34-40.25-41.26-62.26-67.48-38.4-45.75-56.71-74.8-97.97-155.43-1.1-2.15-2.61-5.1,3.77-44.01,3.44-20.95,8.16-45.72,12.04-63.1,2.42-10.87,7.03-29.97,11.42-46.24,2.46-9.1,4.57-16.3,6.28-21.41,2.17-6.47,4.64-13.79,10.94-12.55,51.9,10.25,124.29,19.34,161.59,21.89,36.69,2.5,97.86,4.96,143.76,4.8h.33c45.92.16,107.09-2.3,143.79-4.8,37.3-2.54,109.69-11.63,161.59-21.89,6.32-1.25,8.78,6.08,10.94,12.55,1.71,5.1,3.82,12.31,6.28,21.41,4.39,16.27,9,35.37,11.42,46.24,3.88,17.38,8.61,42.14,12.04,63.1,6.38,38.91,4.87,41.86,3.77,44.01-41.26,80.63-59.57,109.69-97.97,155.43-22.01,26.23-43.39,48.14-62.26,67.48-18.76,19.23-36.48,37.39-51.21,56.12-32.46,41.25-53.63,94.8-55.93,100.77-1.56,4.04-5.81,5.73-18.93,7.55-8.08,1.12-17.73,1.97-24.41,2.48-14.58,1.12-34.96,1.36-39.23,1.36ZM467.83,819.69c3.32.99,13.05,2.69,33.81,4.29,14.2,1.09,34.22,1.33,38.42,1.33s24.11-.24,38.31-1.33c20.76-1.6,30.49-3.29,33.81-4.29,4.62-11.63,25.68-62.22,56.95-101.97,15.13-19.22,33.06-37.61,52.05-57.07,18.72-19.19,39.93-40.93,61.65-66.82,37.59-44.78,55.62-73.38,96.15-152.56.71-8.27-8.36-63.11-16.52-99.65-5.19-23.24-14.5-59.46-18.68-70.24-52.02,10.02-122.33,18.79-159.03,21.29-36.9,2.52-98.42,4.98-144.62,4.83h-.29c-46.17.16-107.7-2.31-144.6-4.83-36.7-2.5-107.01-11.28-159.03-21.29-4.18,10.78-13.49,47.01-18.68,70.24-8.16,36.54-17.23,91.38-16.52,99.65,40.53,79.18,58.57,107.77,96.15,152.56,21.72,25.88,42.94,47.63,61.65,66.82,18.99,19.47,36.92,37.85,52.05,57.07,31.28,39.75,52.33,90.34,56.95,101.97Z"></path>
        <path class="cls-1" d="M524.33,338.4c-14.42,0-84.15-1.29-137.1-7.26-56.55-6.37-118.96-19.34-138.81-25.83-1.57-.52-2.43-2.21-1.92-3.78.52-1.58,2.21-2.43,3.78-1.92,19.61,6.41,81.45,19.24,137.62,25.57,52.68,5.94,122.07,7.22,136.42,7.22,1.66,0,3,1.34,3,3s-1.34,3-3,3Z"></path>
        <g>
          <path class="cls-1" d="M548.96,338.83l-7.43-2.98c.19-.47.42-.94.72-1.45l6.88,4.08c-.11.19-.16.3-.18.34Z"></path>
          <path class="cls-1" d="M688.33,507.06c-.82-1.17-1.29-2.28-1.47-3.49l7.9-1.24c0-.06-.03-.11-.03-.12,0,0,.04.09.17.27l-6.56,4.57ZM695.01,500.5l-7.93-1.06c.05-.37.12-.93.15-1.64l1.05.05.19-6.58c1.28.04,2.16.14,2.92.35l-1.7,6.3,5.53.24c-.03.78-.1,1.53-.21,2.35ZM685.27,499.22c-.71-.01-1.45-.04-2.2-.09l.52-7.98c.62.04,1.23.06,1.82.07l-.14,8ZM679.54,498.68c-.88-.18-1.72-.41-2.49-.69l2.71-7.53c.41.15.87.27,1.38.38l-1.61,7.84ZM673.96,496.7c-.74-.34-1.4-.67-2.03-1.01l3.81-7.03c.49.27,1.01.52,1.56.78l-3.35,7.27ZM668.88,493.73c-.69-.53-1.34-1.1-1.93-1.69l5.69-5.62c.33.34.69.65,1.09.95l-4.85,6.36ZM664.55,489.02c-.38-.6-.75-1.26-1.09-1.94-.08-.16-.14-.3-.2-.44l7.4-3.03-.03-.08c.21.42.44.82.68,1.21l-6.76,4.28ZM662.48,482.42c-.04-.68-.08-1.39-.1-2.11l7.99-.33c.03.65.05,1.3.09,1.91l-7.98.53ZM661.82,477.74c-1.17-.45-2.22-1.18-3.12-2.16l5.9-5.41c.08.09.13.12.13.12l-2.43,6.23,7.21-2.79c.31.79.52,1.74.65,2.98l-7.95.88c-.03-.27-.06-.48-.09-.63l-.31.79ZM656.42,471.86c-.27-.65-.54-1.38-.81-2.22l7.62-2.44c.2.62.38,1.13.56,1.55l-7.37,3.11ZM654.73,466.61c-.17-.62-.35-1.23-.54-1.82l7.63-2.4c.21.66.4,1.35.6,2.04l-7.7,2.18ZM653.34,462.56c-.22-.45-.4-.69-.51-.82l6.01-5.28c.63.71,1.17,1.54,1.67,2.53l-7.16,3.57ZM651.9,461.36c-1-.37-1.94-.89-2.78-1.53l4.85-6.36c.21.16.45.29.72.39l-2.79,7.5ZM646.14,456.44c-.43-.73-.81-1.51-1.15-2.4l7.45-2.91c.18.46.38.88.58,1.22l-6.88,4.08ZM643.95,450.63c-.17-.71-.32-1.41-.46-2.08l7.83-1.62c.12.6.25,1.22.4,1.85l-7.78,1.86ZM642.47,445.97l-1.99-.34,1.37-7.88,1.97.34-1.36,7.88ZM642.9,445.92c-.12-.43-.2-.58-.21-.58.03.05.06.1.1.14l6.26-4.99c.65.82,1.14,1.83,1.54,3.19l-7.68,2.24ZM637.44,445.07c-.66-.13-1.35-.27-2.05-.42l1.7-7.82c.64.14,1.28.27,1.89.39l-1.54,7.85ZM632.29,443.91c-.69-.18-1.38-.37-2.07-.58l2.29-7.66c.6.18,1.2.35,1.8.5l-2.02,7.74ZM627.09,442.28c-.74-.28-1.44-.57-2.1-.87l3.31-7.28c.52.24,1.06.46,1.62.67l-2.83,7.48ZM621.83,439.7c-.77-.5-1.47-1.03-2.08-1.58-.25-.22-.47-.48-.66-.76l3.3-2.2,2.58-3.1.1.11h.01c.31.26.68.54,1.1.81l-4.35,6.71ZM617.15,435.18c-.46-.66-.9-1.36-1.3-2.11l7.04-3.8c.25.47.52.91.81,1.31l-6.55,4.6ZM614.39,429.84c-.26-.69-.5-1.39-.73-2.16l7.66-2.32c.18.59.36,1.13.56,1.65l-7.48,2.83ZM612.82,424.49c-.17-.73-.31-1.43-.43-2.08l7.85-1.54c.11.58.24,1.2.39,1.86l-7.8,1.76ZM614.58,421.6c-.31-.05-.62-.1-.92-.16l.02-.1c.27.12.58.21.91.26ZM610.26,420.57c-.74-.24-1.48-.52-2.19-.81l3.1-7.38c.51.21,1.04.41,1.57.58l-2.48,7.61ZM611.84,419.67c-.02-.06-.03-.12-.05-.17.02.05.04.11.06.16h-.02ZM614.1,419.09l1.06-5.5c.22.04.44.08.66.12,1.9.3,3.17,1.64,3.77,3.99l-5.48,1.4ZM604.91,418.19c-.68-.39-1.35-.82-1.99-1.27l4.59-6.55c.45.31.92.62,1.4.89l-4,6.93ZM600.16,414.69c-.58-.54-1.14-1.11-1.67-1.7l5.96-5.34c.36.4.75.79,1.15,1.17l-5.44,5.87ZM596.31,410.17c-.44-.66-.86-1.35-1.23-2.05l7.04-3.79c.26.48.54.94.84,1.39l-6.64,4.45ZM593.58,404.72c-.24-.73-.45-1.52-.63-2.34l7.82-1.69c.12.55.26,1.07.41,1.54l-7.6,2.49ZM592.43,398.96c-.07-.74-.12-1.48-.16-2.23l7.99-.35c.03.6.07,1.19.13,1.78l-7.96.8ZM600.24,393.66l-8-.22c.02-.73.05-1.46.1-2.16l7.98.53c-.04.6-.07,1.22-.09,1.85ZM600.59,389.04l-7.94-.99s.01-.09.02-.14c-.51.06-1.01.11-1.5.14l-.6-7.98c.58-.04,1.19-.11,1.8-.19l.76,6.02,1.6.28c.47.49,1.03.84,1.58,1.02l-.09-.77,4.64.8c-.09.55-.18,1.15-.27,1.81ZM587.34,387.96c-.86-.11-1.71-.29-2.53-.52l2.18-7.7c.45.13.92.22,1.4.29l-1.05,7.93ZM581.17,385.94c-.77-.43-1.51-.93-2.21-1.48l4.98-6.26c.35.28.73.53,1.12.75l-3.9,6.98ZM601.27,385.26l-2.03-.96-3.45-1.43-.41-3.39c.79-.1,1.33-.14,1.79-.14,2.95,0,4.5,2.09,4.5,4.15,0,.56-.13,1.15-.35,1.66h0s-.03.07-.05.1ZM593.92,382.1h0s.07-.15.07-.15c0,0,0-.02.01-.03-.03.06-.05.12-.08.18ZM594.03,381.84s0,0,0,0c0,0,0,0,0,0ZM576.18,381.61c-.53-.7-1.01-1.45-1.43-2.23l7.06-3.77c.21.4.46.79.74,1.15l-6.37,4.84ZM573.33,375.74c-.19-.7-.36-1.47-.51-2.29l7.87-1.43c.11.6.23,1.14.36,1.63l-7.72,2.09ZM572.36,370.2l-.03-.31h-.19s.06-1.21.06-1.21c-.02-.15-.03-.3-.05-.44h.07s.29-6.35.29-6.35l.51.02c.6.03,1.14.05,1.59.08l-.41,5.99,5.88-.74c.05.36.09.78.14,1.22l.09.82-7.95.91ZM568.93,369.67c-.8-.08-1.53-.17-2.24-.28l1.24-7.9c.59.09,1.18.16,1.75.22l-.76,7.96ZM563.15,368.58c-.92-.3-1.76-.65-2.51-1.05l3.78-7.05c.33.18.73.34,1.19.49l-2.45,7.62ZM556.94,364.27c-.68-1.02-1.13-2.16-1.33-3.39l7.89-1.33c.03.16.07.24.11.3l-6.67,4.42ZM555.45,360.43c-.21-.21-.62-.48-.98-.72l4.37-6.7c.73.47,1.5,1.01,2.21,1.7l-5.6,5.72ZM551.65,357.74c-.7-.58-1.33-1.18-1.92-1.86l6.03-5.26c.29.33.6.64.96.93l-5.07,6.19ZM547.53,352.64c-.37-.7-.71-1.46-1.02-2.25l7.47-2.87c.19.5.41.98.63,1.4l-7.08,3.73ZM545.49,347.12c-.13-.48-.29-.93-.46-1.33l7.32-3.23c.34.76.63,1.59.86,2.46l-7.72,2.1ZM544.01,344.14c-.24-.29-.47-.54-.68-.78-.21-.24-.42-.46-.6-.68l6.13-5.14c.12.15.26.3.4.46.3.33.63.7.96,1.11l-6.22,5.03Z"></path>
          <path class="cls-1" d="M691.63,510.74c-.27-.27-.53-.52-.77-.76l5.69-5.62c.2.21.42.42.66.65l-5.58,5.73Z"></path>
        </g>
        <path class="cls-1" d="M602.82,801.54c-1.35,0-2.58-.92-2.91-2.29-10.98-44.79-7.27-94.33,11.03-147.27,15.44-44.66,41.28-91.9,76.79-140.42.98-1.34,2.86-1.63,4.19-.65,1.34.98,1.63,2.86.65,4.19-35.16,48.03-60.72,94.74-75.96,138.83-17.92,51.82-21.58,100.23-10.87,143.88.39,1.61-.59,3.23-2.2,3.63-.24.06-.48.09-.72.09Z"></path>
        <g>
          <path class="cls-1" d="M769.38,424.15c-.23.23-.46.45-.7.67l-2.73-3.57c.29-.18.59-.36.89-.53l2.53,3.43Z"></path>
          <polygon class="cls-1" points="767.23 426.17 765.79 427.52 762.53 423.61 764.21 422.41 767.23 426.17"></polygon>
          <polygon class="cls-1" points="764.33 428.87 762.86 430.21 759.32 426.2 760.9 424.88 764.33 428.87"></polygon>
          <polygon class="cls-1" points="761.39 431.54 759.93 432.9 756.26 428.92 757.78 427.55 761.39 431.54"></polygon>
          <polygon class="cls-1" points="758.49 434.27 757.06 435.66 753.25 431.7 754.75 430.3 758.49 434.27"></polygon>
          <polygon class="cls-1" points="755.64 437.06 754.22 438.47 750.31 434.55 751.77 433.11 755.64 437.06"></polygon>
          <polygon class="cls-1" points="752.81 439.88 751.41 441.31 747.44 437.45 748.87 436 752.81 439.88"></polygon>
          <polygon class="cls-1" points="750.03 442.75 748.65 444.2 744.62 440.41 746.02 438.92 750.03 442.75"></polygon>
          <polygon class="cls-1" points="747.29 445.66 745.94 447.14 741.84 443.41 743.22 441.9 747.29 445.66"></polygon>
          <polygon class="cls-1" points="744.6 448.62 743.28 450.11 739.12 446.46 740.48 444.93 744.6 448.62"></polygon>
          <polygon class="cls-1" points="741.96 451.62 740.66 453.14 736.45 449.55 737.78 448 741.96 451.62"></polygon>
          <polygon class="cls-1" points="739.33 454.69 737.99 456.23 733.84 452.57 735.15 451.07 739.33 454.69"></polygon>
          <polygon class="cls-1" points="736.64 457.75 735.3 459.27 731.16 455.57 732.51 454.07 736.64 457.75"></polygon>
          <polygon class="cls-1" points="733.97 460.79 732.64 462.3 728.44 458.57 729.8 457.07 733.97 460.79"></polygon>
          <polygon class="cls-1" points="731.31 463.82 729.99 465.33 725.74 461.59 727.09 460.08 731.31 463.82"></polygon>
          <polygon class="cls-1" points="728.68 466.85 727.37 468.38 723.04 464.63 724.39 463.11 728.68 466.85"></polygon>
          <polygon class="cls-1" points="726.06 469.91 724.77 471.44 720.37 467.69 721.71 466.16 726.06 469.91"></polygon>
          <polygon class="cls-1" points="723.48 472.98 722.2 474.52 717.73 470.78 719.05 469.23 723.48 472.98"></polygon>
          <polygon class="cls-1" points="720.92 476.07 719.66 477.63 715.11 473.9 716.41 472.34 720.92 476.07"></polygon>
          <polygon class="cls-1" points="718.4 479.19 717.15 480.76 712.52 477.05 713.81 475.47 718.4 479.19"></polygon>
          <polygon class="cls-1" points="715.91 482.33 714.68 483.91 709.98 480.23 711.25 478.63 715.91 482.33"></polygon>
          <polygon class="cls-1" points="713.46 485.5 712.25 487.09 707.47 483.44 708.71 481.83 713.46 485.5"></polygon>
          <polygon class="cls-1" points="711.04 488.69 709.84 490.29 705.01 486.7 706.23 485.07 711.04 488.69"></polygon>
          <polygon class="cls-1" points="708.65 491.9 707.47 493.51 702.6 490 703.8 488.35 708.65 491.9"></polygon>
          <polygon class="cls-1" points="706.31 495.14 705.15 496.77 700.24 493.33 701.41 491.66 706.31 495.14"></polygon>
          <polygon class="cls-1" points="704.01 498.41 702.86 500.04 697.94 496.71 699.08 495.01 704.01 498.41"></polygon>
          <polygon class="cls-1" points="701.71 501.68 700.56 503.31 695.76 500.16 696.84 498.43 701.71 501.68"></polygon>
          <polygon class="cls-1" points="699.41 504.95 698.26 506.58 693.69 503.7 694.71 501.92 699.41 504.95"></polygon>
          <polygon class="cls-1" points="697.08 508.23 696.49 509.03 692.24 506.42 692.7 505.52 697.08 508.23"></polygon>
        </g>
        <path class="cls-1" d="M638.7,748.45c-.38,0-.77-.07-1.14-.23-10.69-4.39-23.16-8.05-31.04-9.12-1.64-.22-2.79-1.73-2.57-3.38.22-1.64,1.74-2.79,3.37-2.57,8.47,1.14,21.23,4.88,32.52,9.52,1.53.63,2.26,2.38,1.64,3.91-.48,1.16-1.6,1.86-2.78,1.86Z"></path>
        <path class="cls-1" d="M863.51,437.63c-.67,0-1.33-.22-1.89-.67-23.45-19.06-47.8-23.94-84.01-16.87-2.39.47-4.4.13-5.98-.99-2.43-1.74-2.85-4.75-2.99-5.73-2.33-16.66-12.29-57.64-21.28-80.11-.62-1.54.13-3.28,1.67-3.9,1.54-.61,3.29.13,3.9,1.67,9.15,22.87,19.28,64.56,21.65,81.51.2,1.43.53,1.68.53,1.68.07.05.47.15,1.34-.02,38.18-7.46,63.95-2.21,88.94,18.1,1.29,1.04,1.48,2.93.44,4.22-.59.73-1.46,1.11-2.33,1.11Z"></path>
        <g>
          <path class="cls-1" d="M534.83,322.3c-21.42,0-86.21-.44-135.86-5.41-53.17-5.32-113.18-16.44-140.49-24.12-1.59-.45-2.52-2.11-2.08-3.7.45-1.6,2.11-2.52,3.7-2.08,27.06,7.61,86.62,18.64,139.46,23.92,54.01,5.4,126.16,5.42,140.08,5.37h.01c1.65,0,2.99,1.34,3,2.99,0,1.66-1.33,3.01-2.99,3.01-1.2,0-2.83,0-4.83,0Z"></path>
          <path class="cls-1" d="M545.17,322.3c-2.01,0-3.64,0-4.83,0-1.66,0-3-1.35-2.99-3.01,0-1.65,1.35-2.99,3-2.99h.01c13.92.05,86.06.03,140.08-5.37,52.84-5.28,112.4-16.31,139.46-23.92,1.59-.44,3.25.48,3.7,2.08.45,1.59-.48,3.25-2.08,3.7-27.3,7.68-87.32,18.8-140.49,24.12-49.65,4.96-114.44,5.41-135.86,5.41Z"></path>
        </g>
        <path class="cls-1" d="M555.67,338.4c-1.66,0-3-1.34-3-3s1.34-3,3-3c14.35,0,83.75-1.28,136.42-7.22,56.17-6.33,118.01-19.16,137.62-25.57,1.57-.51,3.27.34,3.78,1.92.51,1.57-.34,3.27-1.92,3.78-19.85,6.49-82.26,19.45-138.81,25.83-52.95,5.97-122.67,7.26-137.1,7.26Z"></path>
      </g>
    </g>
  </g>
</svg>