<svg xmlns="http://www.w3.org/2000/svg" version="1.1" viewBox="0 0 1080 1080">
  <defs>
    <style>
      .cls-1 {
        fill: #291313;
      }
    </style>
  </defs>
  
  <g>
    <g id="_レイヤー_1" data-name="レイヤー_1">
      <g>
        <path class="cls-1" d="M392.88,844.3c-9.01,0-18.61-.31-28.55-1.07-9.82-.76-18.26-2.03-27.2-3.37-14.96-2.25-30.42-4.58-54.71-4.84-14.12-.15-38.03,1.59-59.14,3.12-12.74.92-24.78,1.8-33.74,2.2-13.57.61-19.14.64-20.93-4.72-1.1-3.3-12.36-64.64-17.64-93.84-3.16-17.45-7.64-42.45-11.05-62.42-5.19-30.36-5.02-30.71-3.9-32.94,1.39-2.78,3.32-3.68,17.99-9.91,11.85-5.03,29.77-12.63,35.69-17.67,32.36-27.58,55.92-76.41,68.58-102.64,1.8-3.74,3.36-6.96,4.74-9.71,1.51-3.02,3.25-6.45,5.14-10.17,11.17-21.99,28.04-55.23,30.48-68.13.02-.09.04-.26.03-.55-.35-19.52-9.29-185.53-10.86-201.86-.48-4.94,3.11-10.75,14.59-12.25,8.03-1.05,17.83.33,19.05,7.69,1.5,9.02,3.74,48.03,5.92,87.21.57,10.29,1.02,18.42,1.23,21.36.74,10.34,5.83,89.96,4.39,100.82-2.43,18.31-12.36,36.9-21.97,54.88-1.07,2.01-2.15,4.02-3.22,6.04-6.55,12.38-14.72,30.4-22.41,49.44l-.13.33c-2.17,5.37-5.12,12.69-5.16,16.63,11.31-.37,25.01.3,38.26.95,6.13.3,11.93.58,17.23.75,45.08,1.41,79.32,9.66,91.95,13.15,43.21,11.92,67.31,39.5,75.66,50.8,6.21,8.4,6.88,9.77,11.09,19.66.72,1.68,1.55,3.64,2.55,5.96,1.32,3.04-.08,6.57-3.12,7.89-3.04,1.31-6.57-.08-7.89-3.13-1.01-2.34-1.86-4.32-2.58-6.02-3.97-9.32-4.12-9.68-9.71-17.23-7.61-10.3-29.6-35.44-69.2-46.36-12.21-3.37-45.35-11.35-89.13-12.72-5.4-.17-11.25-.45-17.44-.75-13.04-.63-26.52-1.29-37.34-.93-3.2.11-6.37-1.1-8.68-3.3-2.3-2.19-3.6-5.14-3.65-8.3-.1-6.33,3.16-14.4,6.04-21.52l.13-.33c7.84-19.41,16.2-37.84,22.93-50.56,1.07-2.03,2.16-4.05,3.24-6.08,9.52-17.82,18.51-34.64,20.66-50.8,1.09-8.23-2.89-76.33-4.46-98.39-.22-3.04-.67-11.21-1.24-21.55-1.39-25.15-3.92-70.59-5.47-83.72-2.73-.47-7.71.02-10.01,1,1.93,23.99,10.42,182,10.76,201.04.02,1.06-.06,2.04-.24,2.99-2.75,14.58-19.41,47.39-31.57,71.34-1.88,3.7-3.61,7.11-5.12,10.11-1.34,2.67-2.88,5.86-4.66,9.55-13.04,27.03-37.33,77.34-71.6,106.56-7.33,6.25-24.77,13.64-38.79,19.59-3.97,1.69-8.32,3.53-11.01,4.78,3.09,22.79,26.82,152.62,31.63,176.24,7.59.17,27.04-1.25,43.1-2.42,21.34-1.55,45.51-3.31,60.13-3.15,25.13.26,41.73,2.77,56.38,4.97,8.72,1.31,16.95,2.55,26.33,3.28,27.9,2.15,53.18.55,69.46-1.16,8.51-.9,22.42-3.8,37.15-6.87,23.63-4.93,50.41-10.52,68.04-10.8,3.33-.02,6.04,2.59,6.09,5.91.05,3.31-2.59,6.04-5.91,6.09-16.48.25-42.67,5.72-65.78,10.54-15.68,3.27-29.23,6.1-38.34,7.06-11,1.16-25.97,2.26-43.09,2.26Z"></path>
        <path class="cls-1" d="M394.69,794.1c-27.44,0-56.35-5.88-76.01-16.54-46.61-25.27-80.95-68.59-114.8-144.86-.67-1.51.01-3.29,1.53-3.96,1.51-.67,3.29.01,3.96,1.52,33.27,74.96,66.82,117.44,112.17,142.02,28.4,15.39,76.99,20.4,110.62,11.38,39.2-10.5,83.87-16.82,107.74-17.62,1.64-.08,3.04,1.24,3.1,2.9.06,1.66-1.24,3.04-2.9,3.1-23.52.8-67.62,7.04-106.39,17.42-11.71,3.14-25.19,4.64-39.03,4.64Z"></path>
        <g>
          <path class="cls-1" d="M186.37,635.16c-.91,0-1.79-.5-2.23-1.37-.32-.62-.62-1.22-.9-1.79-.62-1.23-.12-2.74,1.12-3.35s2.74-.12,3.35,1.12l.89,1.77c.62,1.23.13,2.74-1.1,3.36-.36.18-.75.27-1.13.27Z"></path>
          <path class="cls-1" d="M391.06,809.75c-1.37,0-2.48-1.1-2.5-2.47-.02-1.38,1.09-2.51,2.47-2.53,1.2-.01,2.5-.05,3.88-.12,1.36-.05,2.55,1,2.61,2.38s-1,2.55-2.38,2.61c-1.45.07-2.81.11-4.04.12h-.03ZM381.17,809.46s-.1,0-.15,0c-1.28-.08-2.62-.17-4-.28-1.38-.11-2.41-1.31-2.3-2.69.11-1.38,1.32-2.41,2.69-2.3,1.35.1,2.65.2,3.91.27,1.38.08,2.43,1.27,2.35,2.65-.08,1.33-1.18,2.35-2.49,2.35ZM404.9,808.94c-1.28,0-2.37-.98-2.49-2.28-.12-1.38.89-2.59,2.27-2.71,1.28-.12,2.59-.24,3.92-.38,1.38-.14,2.6.86,2.74,2.24s-.86,2.6-2.24,2.74c-1.35.14-2.67.26-3.97.38-.08,0-.15.01-.23.01ZM367.37,808.22c-.1,0-.2,0-.29-.02-1.3-.15-2.63-.32-3.96-.49-1.37-.18-2.33-1.44-2.15-2.81.18-1.37,1.44-2.33,2.8-2.15,1.32.17,2.62.33,3.89.48,1.37.16,2.35,1.4,2.19,2.77-.15,1.27-1.23,2.21-2.48,2.21ZM418.68,807.45c-1.24,0-2.32-.93-2.48-2.19-.17-1.37.8-2.62,2.17-2.79,1.3-.16,2.61-.33,3.91-.5,1.38-.18,2.62.78,2.81,2.15.18,1.37-.78,2.62-2.15,2.81-1.32.17-2.63.34-3.95.51-.1.01-.21.02-.31.02ZM353.65,806.26c-.14,0-.28-.01-.42-.04-1.31-.22-2.62-.45-3.94-.7-1.36-.25-2.25-1.56-2-2.92.25-1.36,1.56-2.25,2.92-2,1.29.24,2.58.47,3.86.69,1.36.23,2.28,1.52,2.05,2.88-.21,1.22-1.26,2.08-2.46,2.08ZM432.42,805.55c-1.21,0-2.28-.89-2.47-2.12-.21-1.37.73-2.64,2.1-2.85,1.32-.2,2.62-.4,3.89-.61,1.36-.22,2.65.71,2.87,2.07.22,1.36-.71,2.65-2.07,2.87-1.29.21-2.6.41-3.94.62-.13.02-.25.03-.38.03ZM340.06,803.55c-.19,0-.38-.02-.57-.06-1.3-.3-2.6-.62-3.89-.94-1.34-.34-2.15-1.7-1.81-3.04.34-1.34,1.71-2.15,3.04-1.81,1.26.32,2.52.63,3.79.92,1.34.31,2.18,1.66,1.87,3-.27,1.15-1.3,1.94-2.43,1.94ZM446.09,803.24c-1.18,0-2.23-.84-2.45-2.03-.26-1.36.63-2.66,1.99-2.92,1.35-.26,2.64-.51,3.84-.76,1.35-.28,2.67.59,2.96,1.94.28,1.35-.59,2.68-1.94,2.96-1.24.26-2.55.52-3.93.78-.16.03-.31.04-.47.04ZM459.58,800.1c-1.1,0-2.11-.73-2.41-1.85-.36-1.33.43-2.71,1.76-3.07,1.27-.34,2.55-.69,3.83-1.03,1.33-.36,2.7.44,3.06,1.77.36,1.33-.44,2.7-1.77,3.06-1.28.34-2.54.68-3.81,1.02-.22.06-.44.09-.66.09ZM326.7,799.9c-.25,0-.51-.04-.77-.12-1.3-.42-2.57-.85-3.83-1.29-1.3-.46-1.98-1.89-1.52-3.19.46-1.3,1.89-1.98,3.19-1.52,1.2.43,2.43.84,3.68,1.24,1.31.42,2.04,1.83,1.62,3.15-.34,1.06-1.32,1.74-2.38,1.74ZM472.98,796.63c-1.13,0-2.15-.77-2.43-1.91-.33-1.34.5-2.69,1.84-3.02,1.28-.31,2.57-.61,3.88-.91,1.35-.31,2.69.54,2.99,1.88.31,1.35-.54,2.69-1.88,2.99-1.29.29-2.56.59-3.82.9-.2.05-.39.07-.59.07ZM313.8,794.86c-.36,0-.73-.08-1.08-.25-1.2-.57-2.41-1.18-3.61-1.81-1.22-.64-1.7-2.15-1.06-3.37.64-1.23,2.15-1.7,3.37-1.06,1.15.6,2.32,1.18,3.46,1.73,1.25.6,1.77,2.09,1.17,3.33-.43.9-1.32,1.42-2.26,1.42ZM486.51,793.7c-1.18,0-2.23-.84-2.45-2.04-.26-1.36.64-2.66,1.99-2.92,1.29-.24,2.6-.48,3.93-.71,1.37-.23,2.65.68,2.89,2.04s-.68,2.65-2.04,2.89c-1.31.23-2.59.46-3.85.7-.16.03-.31.04-.47.04ZM500.18,791.51c-1.23,0-2.31-.91-2.48-2.17-.18-1.37.78-2.63,2.15-2.81,1.4-.19,2.71-.36,3.93-.52,1.39-.18,2.62.79,2.8,2.16.18,1.37-.79,2.62-2.16,2.8-1.22.16-2.52.33-3.91.51-.11.02-.22.02-.33.02ZM513.92,789.82c-1.27,0-2.35-.96-2.48-2.25-.14-1.37.86-2.6,2.23-2.74,1.48-.15,2.79-.27,4.01-.36,1.38-.1,2.58.93,2.68,2.31.1,1.38-.93,2.58-2.31,2.68-1.17.09-2.44.2-3.87.34-.09,0-.17.01-.26.01ZM301.67,788.18c-.45,0-.91-.12-1.32-.38-1.14-.71-2.27-1.43-3.4-2.17-1.15-.76-1.47-2.31-.72-3.46.76-1.15,2.31-1.47,3.46-.72,1.09.72,2.18,1.42,3.28,2.1,1.17.73,1.54,2.27.81,3.44-.47.76-1.29,1.18-2.13,1.18ZM290.24,780.36c-.52,0-1.04-.16-1.49-.5-1.07-.8-2.13-1.61-3.19-2.44-1.09-.85-1.28-2.42-.43-3.51.85-1.09,2.42-1.28,3.51-.43,1.03.8,2.06,1.59,3.11,2.37,1.11.83,1.33,2.39.51,3.5-.49.66-1.24,1-2,1ZM279.45,771.67c-.58,0-1.16-.2-1.63-.61-1.01-.87-2.01-1.75-3-2.65-1.03-.92-1.11-2.5-.19-3.53.92-1.03,2.5-1.11,3.53-.19.97.87,1.95,1.73,2.93,2.58,1.04.9,1.16,2.48.26,3.53-.49.57-1.19.87-1.89.87ZM269.26,762.3c-.63,0-1.26-.24-1.75-.71-.96-.93-1.9-1.87-2.84-2.82-.97-.98-.96-2.56.02-3.54.98-.97,2.56-.96,3.54.02.92.92,1.84,1.84,2.78,2.76.99.96,1.01,2.55.04,3.54-.49.5-1.14.75-1.79.75ZM259.63,752.35c-.68,0-1.35-.27-1.84-.81-.91-.99-1.8-1.98-2.68-2.97-.92-1.03-.83-2.61.21-3.53,1.03-.92,2.61-.82,3.53.21.86.97,1.74,1.94,2.63,2.91.93,1.02.86,2.6-.15,3.53-.48.44-1.08.66-1.69.66ZM250.54,741.9c-.72,0-1.44-.31-1.93-.91-.86-1.04-1.7-2.07-2.52-3.1-.86-1.08-.69-2.65.39-3.51,1.08-.86,2.65-.69,3.51.39.81,1.01,1.63,2.02,2.47,3.05.88,1.07.73,2.64-.34,3.52-.47.38-1.03.57-1.59.57ZM242.06,730.94c-.78,0-1.55-.36-2.03-1.04-.75-1.05-1.52-2.14-2.3-3.27-.79-1.13-.5-2.69.63-3.48s2.69-.5,3.48.63c.76,1.1,1.52,2.17,2.26,3.2.8,1.12.55,2.68-.58,3.49-.44.32-.95.47-1.46.47ZM234.27,719.48c-.82,0-1.62-.4-2.1-1.14-.71-1.1-1.43-2.21-2.16-3.35-.74-1.16-.4-2.71.76-3.45,1.16-.74,2.71-.4,3.45.76.72,1.12,1.43,2.23,2.13,3.31.75,1.16.42,2.71-.73,3.46-.42.27-.89.4-1.36.4ZM226.87,707.76c-.84,0-1.66-.42-2.13-1.19-.69-1.12-1.38-2.25-2.07-3.39-.72-1.18-.34-2.72.84-3.43,1.18-.72,2.72-.34,3.43.84.69,1.13,1.37,2.26,2.06,3.37.72,1.18.36,2.72-.82,3.44-.41.25-.86.37-1.31.37ZM219.73,695.88c-.86,0-1.69-.44-2.16-1.23-.67-1.14-1.34-2.28-2.01-3.43-.7-1.19-.3-2.72.9-3.42,1.19-.7,2.72-.3,3.42.9.67,1.14,1.34,2.28,2,3.41.7,1.19.31,2.72-.88,3.42-.4.24-.84.35-1.27.35ZM212.76,683.88c-.87,0-1.71-.45-2.17-1.26-.66-1.15-1.31-2.3-1.96-3.44-.68-1.2-.26-2.73.94-3.41,1.2-.68,2.73-.26,3.41.94.65,1.14,1.3,2.28,1.95,3.43.68,1.2.27,2.73-.93,3.41-.39.22-.82.33-1.24.33ZM205.96,671.82c-.88,0-1.73-.46-2.19-1.28-.65-1.17-1.29-2.32-1.92-3.47-.67-1.21-.23-2.73.98-3.4,1.21-.67,2.73-.23,3.4.98.63,1.14,1.27,2.3,1.92,3.46.67,1.21.24,2.73-.97,3.4-.39.21-.8.32-1.21.32ZM199.28,659.67c-.89,0-1.75-.47-2.2-1.31-.64-1.18-1.27-2.34-1.89-3.49-.66-1.22-.2-2.73,1.01-3.39,1.22-.65,2.73-.2,3.39,1.01.62,1.14,1.24,2.3,1.88,3.48.66,1.21.21,2.73-1,3.39-.38.21-.79.3-1.19.3ZM192.74,647.46c-.9,0-1.76-.48-2.21-1.33-.64-1.21-1.25-2.38-1.85-3.52-.64-1.22-.17-2.73,1.06-3.37,1.22-.64,2.73-.17,3.37,1.06.59,1.13,1.2,2.3,1.84,3.5.64,1.22.18,2.73-1.04,3.38-.37.2-.77.29-1.16.29Z"></path>
          <path class="cls-1" d="M527.54,789.18c-1.38,0-2.5-1.12-2.5-2.5,0-1.38,1.12-2.5,2.5-2.5h2c1.38,0,2.5,1.12,2.5,2.5s-1.12,2.5-2.5,2.5h-2s0,0,0,0Z"></path>
        </g>
        <path class="cls-1" d="M406.64,792.88c-.44,0-.89-.1-1.32-.31-20.87-10.22-59.11-42.37-80.62-72.17-37.99-52.61-49.95-116.53-52.71-134.86-.25-1.64.88-3.17,2.52-3.41,1.63-.24,3.17.88,3.41,2.52,2.71,18,14.45,80.73,51.64,132.24,20.39,28.24,58.21,60.4,78.4,70.29,1.49.73,2.1,2.53,1.38,4.01-.52,1.06-1.59,1.68-2.7,1.68Z"></path>
        <path class="cls-1" d="M442.26,783.77c-1.15,0-2.25-.66-2.74-1.78-11.92-26.81-15.32-39.83-21.5-63.48l-.42-1.59c-6.55-25.06-10.25-53.23-11.01-83.72-.04-1.66,1.27-3.03,2.92-3.07.03,0,.05,0,.08,0,1.62,0,2.96,1.29,3,2.93.74,30.03,4.38,57.74,10.81,82.35l.42,1.6c6.1,23.34,9.46,36.19,21.17,62.56.67,1.51,0,3.29-1.52,3.96-.4.18-.81.26-1.22.26Z"></path>
        <g>
          <path class="cls-1" d="M687.12,844.3c-17.12,0-32.1-1.1-43.09-2.26-9.12-.96-22.66-3.79-38.34-7.06-23.1-4.82-49.29-10.29-65.78-10.54-3.31-.05-5.96-2.78-5.91-6.09s2.74-5.98,6.09-5.91c17.63.27,44.41,5.86,68.04,10.8,14.73,3.07,28.63,5.98,37.15,6.87,16.29,1.71,41.56,3.31,69.46,1.16,9.38-.72,17.62-1.96,26.33-3.28,14.65-2.21,31.25-4.71,56.38-4.97,14.6-.15,38.79,1.6,60.13,3.15,16.07,1.17,35.52,2.58,43.1,2.42,4.81-23.62,28.54-153.45,31.63-176.24-2.69-1.25-7.04-3.1-11.01-4.78-14.02-5.95-31.46-13.35-38.79-19.59-34.28-29.22-58.56-79.53-71.6-106.56-1.78-3.69-3.32-6.88-4.66-9.55-1.5-3-3.24-6.42-5.12-10.11-12.16-23.95-28.81-56.75-31.57-71.34-.18-.94-.26-1.92-.24-3,.34-19.05,8.83-177.06,10.76-201.05-2.3-.98-7.28-1.46-10.01-1-1.56,13.13-4.08,58.57-5.47,83.72-.57,10.34-1.03,18.51-1.24,21.55-1.82,25.52-5.66,91.51-4.5,98.15,3.09,17.77,12.93,36.35,23.35,56.02l.58,1.1c6.73,12.72,15.09,31.15,22.93,50.56l.13.33c2.88,7.12,6.14,15.2,6.04,21.53-.05,3.16-1.35,6.11-3.65,8.3-2.32,2.21-5.47,3.41-8.68,3.3-10.82-.36-24.31.3-37.34.93-6.19.3-12.03.59-17.44.75-43.79,1.37-76.92,9.35-89.14,12.72-39.6,10.92-61.59,36.06-69.2,46.36-6.61,8.94-11.13,16.73-16.11,32.23-3.63,11.31-7.69,31.75-8.41,48.94-.86,20.29,2.83,52.99,2.87,53.32.37,3.29-1.99,6.27-5.28,6.64-3.3.38-6.27-1.99-6.64-5.28-.16-1.38-3.83-33.95-2.93-55.18.77-18.25,5.1-40.03,8.98-52.1,5.46-16.99,10.69-25.95,17.89-35.69,8.35-11.3,32.45-38.88,75.66-50.8,12.63-3.48,46.87-11.74,91.95-13.15,5.3-.17,11.1-.45,17.23-.75,13.26-.65,26.96-1.31,38.26-.94-.04-3.95-2.99-11.27-5.16-16.64l-.13-.33c-7.7-19.06-15.86-37.08-22.41-49.44l-.58-1.1c-10.4-19.63-21.15-39.93-24.57-59.58-1.82-10.43,4.29-100.17,4.35-101.06.21-2.94.66-11.07,1.23-21.36,2.17-39.18,4.42-78.2,5.92-87.21,1.22-7.36,11.02-8.75,19.05-7.69,11.48,1.51,15.07,7.32,14.59,12.25-1.58,16.32-10.51,182.34-10.86,201.86,0,.29.01.46.03.55,2.44,12.91,19.31,46.14,30.48,68.14,1.89,3.72,3.63,7.15,5.14,10.17,1.38,2.75,2.94,5.97,4.74,9.71,12.66,26.23,36.23,75.06,68.58,102.64,5.92,5.05,23.84,12.65,35.69,17.67,14.67,6.22,16.6,7.13,17.99,9.91,1.12,2.23,1.29,2.58-3.9,32.94-3.41,19.97-7.9,44.96-11.05,62.42-5.28,29.19-16.54,90.54-17.64,93.84-1.79,5.37-7.36,5.33-20.93,4.72-8.96-.4-21-1.28-33.74-2.2-21.11-1.53-45.05-3.26-59.14-3.12-24.29.26-39.76,2.59-54.71,4.84-8.94,1.35-17.38,2.62-27.2,3.37-9.93.76-19.54,1.07-28.55,1.07Z"></path>
          <path class="cls-1" d="M685.31,794.1c-13.85,0-27.31-1.5-39.03-4.64-38.76-10.39-82.86-16.63-106.39-17.42-1.66-.06-2.95-1.44-2.9-3.1.06-1.66,1.42-2.96,3.1-2.9,23.87.81,68.54,7.12,107.74,17.62,33.64,9.01,82.23,4.01,110.62-11.38,45.35-24.59,78.9-67.06,112.17-142.02.67-1.51,2.44-2.2,3.96-1.52,1.51.67,2.2,2.44,1.53,3.96-33.85,76.27-68.18,119.59-114.8,144.86-19.66,10.66-48.57,16.54-76.01,16.54Z"></path>
          <g>
            <path class="cls-1" d="M893.63,635.16c-.38,0-.77-.09-1.13-.27-1.23-.62-1.73-2.13-1.1-3.36l.89-1.77c.62-1.24,2.12-1.74,3.35-1.12,1.23.62,1.74,2.12,1.12,3.35-.29.57-.59,1.17-.9,1.79-.44.87-1.32,1.37-2.23,1.37Z"></path>
            <path class="cls-1" d="M688.94,809.75h-.03c-1.23-.01-2.59-.06-4.04-.12-1.38-.06-2.45-1.23-2.38-2.61.06-1.38,1.22-2.44,2.61-2.38,1.38.06,2.68.1,3.88.12,1.38.02,2.49,1.15,2.47,2.53-.02,1.37-1.13,2.47-2.5,2.47ZM698.83,809.46c-1.31,0-2.41-1.02-2.49-2.35-.08-1.38.97-2.56,2.35-2.65,1.25-.08,2.56-.17,3.91-.27,1.39-.11,2.58.92,2.69,2.3.11,1.38-.92,2.58-2.3,2.69-1.38.11-2.71.2-4,.28-.05,0-.1,0-.15,0ZM675.1,808.94c-.08,0-.15,0-.23-.01-1.3-.12-2.62-.24-3.97-.38-1.37-.14-2.38-1.37-2.24-2.74s1.35-2.38,2.74-2.24c1.33.13,2.64.26,3.92.38,1.38.12,2.39,1.34,2.27,2.71-.12,1.3-1.21,2.28-2.49,2.28ZM712.63,808.22c-1.25,0-2.33-.94-2.48-2.21-.16-1.37.82-2.61,2.19-2.77,1.28-.15,2.58-.31,3.89-.48,1.37-.18,2.62.78,2.8,2.15.18,1.37-.78,2.62-2.15,2.81-1.34.18-2.66.34-3.96.49-.1.01-.2.02-.29.02ZM661.32,807.45c-.1,0-.21,0-.31-.02-1.31-.16-2.63-.33-3.95-.51-1.37-.18-2.33-1.44-2.15-2.81.18-1.37,1.43-2.33,2.81-2.15,1.3.17,2.61.34,3.91.5,1.37.17,2.34,1.42,2.17,2.79-.16,1.27-1.23,2.19-2.48,2.19ZM726.35,806.26c-1.2,0-2.26-.86-2.46-2.08-.23-1.36.69-2.65,2.05-2.88,1.28-.22,2.57-.45,3.86-.69,1.36-.25,2.66.64,2.92,2s-.64,2.66-2,2.92c-1.32.24-2.63.48-3.94.7-.14.02-.28.04-.42.04ZM647.59,805.55c-.12,0-.25,0-.38-.03-1.33-.2-2.65-.41-3.94-.62-1.36-.22-2.29-1.5-2.07-2.87.22-1.36,1.5-2.29,2.87-2.07,1.28.21,2.58.41,3.89.61,1.37.21,2.3,1.48,2.1,2.85-.19,1.24-1.25,2.12-2.47,2.12ZM739.94,803.55c-1.14,0-2.17-.78-2.43-1.94-.31-1.34.53-2.69,1.87-3,1.27-.29,2.54-.6,3.79-.92,1.34-.34,2.7.47,3.04,1.81.34,1.34-.47,2.7-1.81,3.04-1.29.33-2.59.64-3.89.94-.19.04-.38.06-.57.06ZM633.91,803.24c-.15,0-.31-.01-.47-.04-1.38-.26-2.69-.52-3.93-.78-1.35-.28-2.22-1.6-1.94-2.96.28-1.35,1.6-2.22,2.96-1.94,1.21.25,2.5.5,3.84.76,1.36.26,2.25,1.57,1.99,2.92-.23,1.2-1.28,2.03-2.45,2.03ZM620.42,800.1c-.22,0-.44-.03-.66-.09-1.26-.34-2.53-.68-3.81-1.02-1.33-.36-2.13-1.73-1.77-3.06.36-1.33,1.73-2.13,3.06-1.77,1.28.34,2.56.69,3.83,1.03,1.33.36,2.12,1.73,1.76,3.07-.3,1.11-1.31,1.85-2.41,1.85ZM753.3,799.9c-1.06,0-2.04-.68-2.38-1.74-.42-1.31.3-2.72,1.62-3.15,1.25-.4,2.47-.81,3.68-1.24,1.3-.46,2.73.22,3.19,1.52.46,1.3-.21,2.73-1.52,3.19-1.25.45-2.53.88-3.83,1.29-.25.08-.51.12-.77.12ZM607.02,796.63c-.19,0-.39-.02-.59-.07-1.26-.3-2.53-.6-3.82-.9-1.35-.31-2.19-1.65-1.88-2.99.31-1.35,1.65-2.19,2.99-1.88,1.31.3,2.61.6,3.88.91,1.34.32,2.17,1.68,1.84,3.02-.28,1.14-1.3,1.91-2.43,1.91ZM766.2,794.86c-.93,0-1.83-.52-2.26-1.42-.6-1.25-.07-2.74,1.17-3.33,1.15-.55,2.31-1.13,3.46-1.73,1.22-.64,2.73-.16,3.37,1.06.64,1.22.16,2.73-1.06,3.37-1.2.63-2.42,1.23-3.61,1.81-.35.17-.72.25-1.08.25ZM593.49,793.7c-.15,0-.31-.01-.47-.04-1.26-.24-2.55-.47-3.85-.7-1.36-.23-2.27-1.53-2.04-2.89.24-1.36,1.53-2.27,2.89-2.04,1.34.23,2.65.47,3.93.71,1.36.26,2.25,1.56,1.99,2.92-.23,1.2-1.28,2.04-2.45,2.04ZM579.82,791.51c-.11,0-.22,0-.33-.02-1.4-.19-2.7-.36-3.91-.51-1.37-.18-2.33-1.43-2.16-2.8.18-1.37,1.42-2.34,2.8-2.16,1.22.16,2.53.33,3.93.52,1.37.18,2.33,1.44,2.15,2.81-.17,1.26-1.24,2.17-2.48,2.17ZM566.08,789.82c-.08,0-.17,0-.26-.01-1.43-.15-2.69-.26-3.87-.34-1.38-.1-2.41-1.3-2.31-2.68.1-1.38,1.28-2.42,2.68-2.31,1.22.09,2.53.21,4.01.36,1.37.14,2.37,1.37,2.23,2.74-.13,1.29-1.22,2.25-2.48,2.25ZM778.33,788.18c-.84,0-1.65-.42-2.13-1.18-.73-1.17-.37-2.71.81-3.44,1.1-.68,2.2-1.38,3.28-2.1,1.15-.76,2.7-.44,3.46.72.76,1.15.44,2.7-.72,3.46-1.13.74-2.26,1.46-3.4,2.17-.41.25-.87.38-1.32.38ZM789.76,780.36c-.76,0-1.51-.35-2-1-.83-1.11-.6-2.67.51-3.5,1.04-.78,2.08-1.57,3.11-2.37,1.09-.85,2.66-.66,3.51.43.85,1.09.66,2.66-.43,3.51-1.06.82-2.12,1.64-3.19,2.44-.45.34-.97.5-1.49.5ZM800.55,771.67c-.7,0-1.4-.29-1.89-.87-.9-1.05-.79-2.62.26-3.53.99-.85,1.97-1.71,2.93-2.58,1.03-.92,2.61-.84,3.53.19.92,1.03.84,2.61-.19,3.53-.99.89-1.99,1.77-3,2.65-.47.41-1.05.61-1.63.61ZM810.74,762.3c-.65,0-1.3-.25-1.79-.75-.96-.99-.95-2.57.04-3.54.94-.92,1.86-1.83,2.78-2.76.97-.98,2.55-.99,3.54-.02.98.97.99,2.55.02,3.54-.93.94-1.88,1.88-2.84,2.82-.49.47-1.12.71-1.75.71ZM820.37,752.35c-.6,0-1.21-.22-1.69-.66-1.02-.93-1.09-2.51-.15-3.53.89-.97,1.76-1.94,2.63-2.91.92-1.03,2.5-1.13,3.53-.21,1.03.92,1.12,2.5.21,3.53-.88.99-1.77,1.98-2.68,2.97-.49.54-1.17.81-1.84.81ZM829.46,741.9c-.56,0-1.12-.19-1.59-.57-1.07-.88-1.22-2.45-.34-3.52.84-1.02,1.66-2.04,2.47-3.05.86-1.08,2.43-1.25,3.51-.39,1.08.86,1.25,2.44.39,3.51-.82,1.03-1.66,2.06-2.52,3.1-.49.6-1.21.91-1.93.91ZM837.94,730.94c-.5,0-1.01-.15-1.46-.47-1.12-.8-1.38-2.37-.58-3.49.74-1.03,1.49-2.1,2.26-3.2.79-1.14,2.34-1.42,3.48-.63,1.13.79,1.42,2.34.63,3.48-.78,1.13-1.55,2.22-2.3,3.27-.49.68-1.26,1.04-2.03,1.04ZM845.73,719.48c-.47,0-.94-.13-1.36-.4-1.16-.75-1.49-2.3-.73-3.46.71-1.08,1.42-2.19,2.13-3.31.74-1.16,2.29-1.5,3.45-.76,1.16.74,1.5,2.29.76,3.45-.72,1.13-1.44,2.25-2.16,3.35-.48.74-1.28,1.14-2.1,1.14ZM853.13,707.76c-.45,0-.9-.12-1.31-.37-1.18-.72-1.54-2.26-.82-3.44.68-1.11,1.37-2.24,2.06-3.37.72-1.18,2.26-1.56,3.43-.84,1.18.72,1.56,2.25.84,3.43-.69,1.14-1.38,2.27-2.07,3.39-.47.77-1.29,1.19-2.13,1.19ZM860.27,695.88c-.43,0-.87-.11-1.27-.35-1.19-.7-1.58-2.23-.88-3.42.67-1.13,1.34-2.27,2-3.41.7-1.19,2.23-1.59,3.42-.9,1.19.7,1.59,2.23.9,3.42-.67,1.15-1.34,2.29-2.01,3.43-.47.79-1.3,1.23-2.16,1.23ZM867.24,683.88c-.42,0-.85-.11-1.24-.33-1.2-.69-1.62-2.21-.93-3.41.65-1.14,1.31-2.29,1.95-3.43.68-1.2,2.21-1.62,3.41-.94,1.2.68,1.62,2.21.94,3.41-.65,1.15-1.3,2.29-1.96,3.44-.46.81-1.31,1.26-2.17,1.26ZM874.04,671.82c-.41,0-.83-.1-1.21-.32-1.21-.67-1.64-2.19-.97-3.4.65-1.16,1.29-2.31,1.92-3.46.67-1.21,2.19-1.65,3.4-.98,1.21.67,1.65,2.19.98,3.4-.63,1.15-1.28,2.31-1.92,3.47-.46.82-1.31,1.28-2.19,1.28ZM880.72,659.67c-.4,0-.81-.1-1.19-.3-1.21-.66-1.66-2.18-1-3.39.64-1.18,1.27-2.34,1.88-3.48.65-1.21,2.17-1.67,3.39-1.01,1.21.66,1.67,2.17,1.01,3.39-.62,1.15-1.25,2.31-1.89,3.49-.45.83-1.31,1.31-2.2,1.31ZM887.26,647.46c-.39,0-.79-.09-1.16-.29-1.22-.64-1.69-2.16-1.04-3.38.63-1.2,1.25-2.37,1.84-3.5.64-1.22,2.15-1.7,3.37-1.06,1.22.64,1.7,2.15,1.06,3.37-.59,1.13-1.21,2.31-1.85,3.52-.45.85-1.32,1.33-2.21,1.33Z"></path>
            <path class="cls-1" d="M552.46,789.18h-2c-1.38,0-2.5-1.12-2.5-2.5s1.12-2.5,2.5-2.5h2c1.38,0,2.5,1.12,2.5,2.5,0,1.38-1.12,2.5-2.5,2.5Z"></path>
          </g>
          <path class="cls-1" d="M673.36,792.88c-1.11,0-2.18-.62-2.7-1.68-.73-1.49-.11-3.28,1.38-4.01,20.19-9.89,58-42.05,78.4-70.29,37.2-51.51,48.93-114.24,51.64-132.24.25-1.64,1.77-2.76,3.41-2.52,1.64.25,2.77,1.78,2.52,3.41-2.76,18.34-14.72,82.25-52.71,134.86-21.52,29.8-59.76,61.95-80.62,72.17-.42.21-.87.31-1.32.31Z"></path>
          <path class="cls-1" d="M637.74,783.77c-.41,0-.82-.08-1.22-.26-1.51-.67-2.2-2.45-1.52-3.96,11.72-26.36,15.08-39.22,21.17-62.56l.42-1.6c6.43-24.62,10.07-52.32,10.81-82.35.04-1.66,1.38-2.98,3.07-2.92,1.66.04,2.97,1.42,2.92,3.07-.75,30.49-4.46,58.66-11.01,83.72l-.42,1.59c-6.18,23.64-9.58,36.67-21.5,63.48-.5,1.12-1.59,1.78-2.74,1.78Z"></path>
        </g>
        <g>
          <path class="cls-1" d="M330.71,433.13l-3.93-6.97c.5-.28,1.03-.52,1.58-.71l2.59,7.57c-.09.03-.17.06-.24.11Z"></path>
          <path class="cls-1" d="M530.66,614.07c-.03-.6-.08-1.13-.15-1.64l7.92-1.13c.11.75.18,1.53.22,2.37l-7.99.4ZM529.99,610.2c-.16-.47-.35-.93-.56-1.38l7.19-3.52c.37.76.69,1.55.96,2.35l-7.58,2.55ZM528.24,606.9c-.31-.41-.65-.81-1.02-1.21l5.85-5.46c.56.6,1.09,1.23,1.57,1.87l-6.4,4.8ZM525.51,604.19c-.42-.31-.89-.62-1.39-.92l4.16-6.83c.69.42,1.36.86,1.96,1.31l-4.74,6.45ZM521.81,602.02c-.54-.26-1.09-.5-1.65-.74l3.09-7.38c.69.29,1.37.59,2.03.91l-3.47,7.21ZM517.58,600.29c-.59-.2-1.18-.4-1.78-.58l2.34-7.65c.69.21,1.37.43,2.05.67l-2.62,7.56ZM513.07,598.95c-.62-.16-1.23-.3-1.84-.44l1.73-7.81c.69.15,1.38.32,2.08.49l-1.97,7.75ZM508.45,597.96c-.64-.11-1.26-.21-1.86-.29l1.11-7.92c.69.1,1.4.21,2.12.33l-1.37,7.88ZM503.82,597.36c-.39-.03-.76-.05-1.12-.07-.71-.03-1.79-.25-2.91-1.08l4.6-6.14-.57,7.29ZM496.93,592.64c-.34-.58-.69-1.21-1.05-1.88l7.02-3.83c.32.58.62,1.14.92,1.64l-6.89,4.06ZM504.42,589.69c-.26-.16-.72-.37-1.36-.39.44.02.9.05,1.38.09l-.02.31ZM494.46,588.2c-.3-.52-.61-1.04-.93-1.54l6.71-4.35c.4.62.79,1.26,1.16,1.91l-6.94,3.99ZM492.13,584.81c-.17-.18-.33-.33-.48-.45-.17-.13-.33-.25-.49-.37l4.74-6.44c.25.18.5.37.74.57.45.36.9.78,1.33,1.24l-5.85,5.46ZM489.07,582.66c-.53-.29-1.06-.55-1.57-.79l3.38-7.25c.72.34,1.39.67,2.03,1.02l-3.83,7.03ZM484.86,580.72c-.71-.3-1.38-.58-1.99-.87l3.4-7.24c.52.25,1.09.49,1.7.74l-3.1,7.37ZM479.12,577.33c-.59-.63-1.04-1.33-1.35-2.09-.18-.44-.33-.92-.47-1.47l7.66-1.89-5.84,5.45ZM485.18,572.22c-.08-.2-.18-.31-.2-.34l.09-.02c.05.22.09.33.11.36ZM476.75,570.21c-.06-.66-.12-1.36-.17-2.09l7.98-.6c.05.67.1,1.31.16,1.92l-7.96.77ZM476.34,565.15c-.05-.63-.12-1.26-.19-1.89l7.95-.92c.08.71.15,1.42.21,2.12l-7.97.69ZM475.75,560.58l-.03-.16c-.1-.52-.22-1.04-.36-1.57l7.74-2.01c.17.67.33,1.34.46,2.02l.04.18-7.85,1.54ZM474.58,556.32c-.2-.56-.42-1.1-.65-1.64l7.35-3.17c.3.69.58,1.39.83,2.1l-7.53,2.71ZM472.77,552.31c-.29-.52-.58-1.02-.9-1.51l6.74-4.32c.4.62.79,1.28,1.16,1.95l-7,3.87ZM470.37,548.7c-.36-.45-.74-.89-1.12-1.3l5.85-5.46c.52.55,1.03,1.14,1.51,1.75l-6.24,5.01ZM467.41,545.67c-.34-.28-.69-.55-1.05-.81l-.25-.17,4.5-6.62c.13.09.26.18.39.27.52.37,1.03.77,1.52,1.18l-5.12,6.14ZM463.99,543.46c-.49-.24-1.03-.48-1.59-.71l3.04-7.4c.73.3,1.43.62,2.09.94l-3.54,7.18ZM459.83,541.81c-.6-.2-1.2-.38-1.8-.56l2.24-7.68c.68.2,1.37.41,2.05.63l-2.48,7.6ZM455.22,540.49l-1.94-.5,2-7.75,1.97.51-2.03,7.74ZM450.24,539.17c-.85-.25-1.57-.48-2.2-.72l2.8-7.5c.44.17.98.34,1.64.53l-2.24,7.68ZM443.84,535.83c-.66-.76-1.1-1.62-1.3-2.57-.08-.39-.16-.85-.24-1.38l7.25-1.01-5.71,4.96ZM450.36,531.58c-.07-.34-.2-.6-.32-.78l.18-.03c.04.31.08.58.13.81ZM441.92,528.84c-.08-.6-.16-1.24-.26-1.9l7.91-1.21c.11.73.21,1.43.29,2.09l-7.94,1.02ZM441.16,524.21c-.12-.57-.27-1.15-.43-1.74l7.71-2.14c.2.73.38,1.46.54,2.18l-7.82,1.7ZM439.91,520.02c-.21-.53-.44-1.04-.68-1.52l7.14-3.61c.35.69.67,1.41.97,2.16l-7.43,2.96ZM438.01,516.49c-.18-.24-.37-.48-.57-.71-.13-.15-.26-.3-.39-.43l5.78-5.53c.23.24.45.49.68.75.33.38.65.78.95,1.19l-6.45,4.74ZM435.39,513.93c-.4-.27-.81-.52-1.26-.74l3.57-7.16c.77.38,1.51.82,2.21,1.29l-4.52,6.6ZM431.93,512.32c-.5-.15-1.05-.3-1.68-.45l1.82-7.79c.81.19,1.53.38,2.21.59l-2.35,7.65ZM427.4,511.28c-.73-.15-1.44-.3-2.14-.47l1.94-7.76c.58.15,1.18.27,1.8.4l-1.6,7.84ZM421.66,509.56c-.77-.37-1.49-.8-2.12-1.27l-.34-.26,4.97-6.26.18.14c.2.15.45.3.75.44l-3.45,7.22ZM416.37,505.02c-.47-.65-.9-1.36-1.32-2.15l7.06-3.76c.26.49.52.91.78,1.27l-6.51,4.64ZM413.62,499.81l-.78-1.85,7.36-3.13.78,1.86-7.36,3.13ZM411.7,495.49c-.27-.53-.54-1-.83-1.44l6.75-4.3c.41.64.79,1.31,1.18,2.05l-7.1,3.69ZM409.45,492.18c-.34-.38-.71-.74-1.1-1.08l5.27-6.02c.62.54,1.22,1.13,1.77,1.74l-5.94,5.36ZM406.48,489.71c-.34-.21-.72-.39-1.13-.55l2.83-7.48c.88.33,1.72.74,2.49,1.21l-4.19,6.82ZM403.24,488.63c-.51-.08-1.05-.13-1.65-.17l.49-7.99c.84.05,1.61.13,2.36.25l-1.2,7.91ZM396.87,488.44l-.12-8,2.03-.03.09,8-2,.03ZM393.42,488.36c-1.19-.11-2.2-.33-3.07-.68l2.92-7.39-7.12,3.17c-.35-.79-.62-1.66-.85-2.72l7.82-1.66c.1.49.21.86.33,1.13l-.12.06c.09.03.34.09.81.13l-.73,7.97ZM384.77,477.56c-.09-.57-.19-1.16-.32-1.76l7.82-1.7c.16.76.29,1.49.4,2.2l-7.9,1.25ZM383.78,473.51c-.19-.48-.39-.93-.63-1.36l7.02-3.84c.4.73.76,1.5,1.07,2.29l-7.45,2.91ZM381.88,470.3c-.17-.2-.34-.4-.53-.6-.1-.11-.22-.21-.33-.31l5.1-6.17c.4.33.77.68,1.1,1.03.29.31.56.62.83.94l-6.16,5.11ZM379.34,468.39c-.44-.2-.94-.39-1.48-.57l2.51-7.6c.81.27,1.58.56,2.28.88l-3.3,7.29ZM375.33,467.14c-.61-.13-1.21-.25-1.8-.35l1.34-7.89c.71.12,1.43.26,2.16.42l-1.71,7.82ZM370.71,466.38l-.81-.1c-.46-.06-.87-.11-1.23-.16l.81-5.94-5.9.28c-.02-.46-.04-.99-.05-1.58v-.52s7.98-.21,7.98-.21v.27s.2.02.2.02l-.16,1.23c0,.14,0,.28.02.41h-.07s-.8,6.29-.8,6.29ZM363.4,455.5c-.04-.59-.09-1.19-.17-1.79l7.94-.98c.09.75.16,1.5.21,2.22l-7.98.54ZM362.78,451.24c-.13-.5-.28-.96-.44-1.35l7.37-3.1c.32.76.6,1.59.82,2.47l-7.75,1.98ZM361.58,448.65c-.16-.16-.29-.22-.37-.26l3.07-7.39c1.09.45,2.08,1.11,2.94,1.97l-5.64,5.67ZM357.83,447.17c-.95-.58-1.78-1.35-2.55-2.35l6.36-4.86c.15.2.27.33.36.38l-4.17,6.83ZM353.46,442.04c-.32-.5-.61-.89-.9-1.24l6.13-5.13c.5.6.97,1.24,1.47,2.01l-6.71,4.36ZM351.06,439.38c-.38-.28-.79-.54-1.23-.78l3.83-7.02c.76.42,1.49.88,2.16,1.37l-4.76,6.43ZM347.64,437.63c-.51-.18-1.06-.36-1.63-.52l2.13-7.71c.76.21,1.5.44,2.2.7l-2.7,7.53ZM342.9,436.15c-.66-.22-1.32-.46-1.97-.69l2.71-7.53c.61.22,1.22.44,1.83.64l-2.57,7.57ZM338.11,434.44c-.61-.22-1.21-.42-1.8-.61l2.46-7.61c.66.21,1.33.44,2.01.69l-2.68,7.54ZM333.8,433.13c-.54-.11-1.02-.19-1.44-.22l.57-7.98c.8.06,1.63.18,2.54.37l-1.66,7.83Z"></path>
          <path class="cls-1" d="M531.17,619.35c-.21-.59-.33-1.22-.4-1.99l7.8-.63-7.41,2.62ZM538.77,616.87c0-.05-.03-.1-.04-.15h.02c0,.05,0,.1.02.15Z"></path>
        </g>
        <path class="cls-1" d="M428.27,581.55c-.34-.44-.75-.97-1.22-1.56l4.7-3.73c.48.6.9,1.14,1.25,1.59l-4.73,3.69ZM425.81,578.44c-.39-.49-.81-1-1.25-1.54l4.64-3.8c.45.55.88,1.07,1.28,1.57l-4.67,3.76ZM423.3,575.39c-.41-.49-.84-1-1.28-1.52l4.57-3.88c.45.53.88,1.04,1.3,1.55l-4.6,3.85ZM420.75,572.38c-.43-.49-.86-.99-1.3-1.48l4.49-3.98c.45.51.9,1.02,1.34,1.53l-4.53,3.93ZM418.13,569.43c-.44-.48-.88-.96-1.33-1.44l4.38-4.1c.47.5.93,1,1.39,1.51l-4.44,4.03ZM415.46,566.57c-.46-.47-.91-.94-1.37-1.39l4.23-4.25c.48.48.96.97,1.44,1.47l-4.31,4.17ZM412.71,563.85c-.42-.4-.83-.78-1.24-1.14l-.16-.14,3.98-4.49.18.16c.45.4.91.82,1.37,1.26l-4.12,4.36ZM409.82,561.24c-.49-.43-.99-.87-1.49-1.3l3.93-4.53c.51.44,1.02.89,1.52,1.33l-3.96,4.51ZM406.83,558.65c-.5-.42-1-.85-1.51-1.28l3.86-4.59c.52.44,1.03.87,1.54,1.31l-3.89,4.56ZM403.8,556.11c-.5-.42-1.01-.83-1.53-1.25l3.78-4.66c.53.43,1.05.86,1.57,1.28l-3.82,4.62ZM400.74,553.62c-.51-.41-1.03-.82-1.55-1.23l3.71-4.72c.54.42,1.06.84,1.58,1.25l-3.74,4.69ZM397.63,551.18c-.51-.4-1.04-.8-1.57-1.2l3.63-4.78c.54.41,1.08.82,1.61,1.23l-3.67,4.75ZM394.48,548.79c-.52-.39-1.05-.78-1.59-1.18l3.56-4.83c.55.41,1.09.81,1.62,1.2l-3.59,4.81ZM391.3,546.44c-.53-.38-1.06-.77-1.6-1.16l3.49-4.88c.56.4,1.1.79,1.64,1.18l-3.53,4.85ZM388.08,544.14l-1.62-1.14,3.44-4.92,1.65,1.16-3.46,4.9ZM384.82,541.86c-.55-.38-1.1-.77-1.66-1.16l3.45-4.91c.54.38,1.09.76,1.62,1.13l-3.42,4.93ZM381.52,539.54c-.54-.39-1.09-.78-1.64-1.17l3.5-4.87c.54.39,1.08.77,1.61,1.15l-3.48,4.89ZM378.25,537.19l-1.63-1.19,3.55-4.84,1.6,1.17-3.53,4.85ZM375,534.8c-.54-.4-1.08-.8-1.62-1.21l3.6-4.8c.53.4,1.06.79,1.59,1.19l-3.57,4.82ZM371.78,532.39l-1.61-1.22,3.63-4.78,1.58,1.2-3.61,4.79ZM368.57,529.95l-1.6-1.23,3.67-4.75,1.58,1.21-3.65,4.76ZM365.38,527.49l-1.59-1.24,3.71-4.72,1.57,1.22-3.69,4.74ZM362.22,525l-1.58-1.25,3.74-4.69,1.56,1.24-3.72,4.71ZM359.08,522.5l-1.57-1.26,3.77-4.67,1.55,1.24-3.75,4.68ZM355.95,519.97l-1.56-1.27,3.8-4.64,1.54,1.26-3.79,4.66ZM352.84,517.42l-1.55-1.28,3.84-4.61,1.53,1.27-3.82,4.63ZM349.75,514.85l-.42-.35c-.38-.32-.77-.66-1.16-1l3.97-4.5c.36.31.71.62,1.06.91l.4.34-3.85,4.6ZM346.63,512.09c-.49-.46-.99-.94-1.5-1.44l4.21-4.27c.47.46.93.91,1.39,1.33l-4.1,4.38ZM343.67,509.18c-.47-.48-.94-.98-1.42-1.49l4.38-4.1c.45.48.9.95,1.34,1.41l-4.3,4.18ZM340.87,506.19c-.45-.5-.91-1.01-1.36-1.53l4.51-3.96c.44.5.87.98,1.3,1.46l-4.45,4.03ZM338.17,503.12c-.44-.51-.88-1.03-1.32-1.56l4.61-3.84c.42.51.85,1.01,1.27,1.5l-4.56,3.9ZM335.56,499.99c-.42-.52-.85-1.05-1.28-1.58l4.69-3.74c.41.52.82,1.03,1.24,1.53l-4.65,3.8ZM333.03,496.82c-.41-.53-.83-1.06-1.24-1.6l4.76-3.66c.4.53.81,1.04,1.21,1.56l-4.72,3.7ZM330.56,493.61c-.41-.54-.81-1.08-1.22-1.63l4.82-3.57c.39.53.79,1.06,1.18,1.58l-4.78,3.62ZM328.14,490.35c-.4-.54-.79-1.09-1.19-1.64l4.87-3.51c.39.54.78,1.07,1.16,1.6l-4.85,3.54ZM325.78,487.07c-.39-.55-.78-1.1-1.17-1.66l4.92-3.43c.38.54.76,1.08,1.14,1.62l-4.89,3.47ZM323.47,483.76c-.38-.55-.76-1.11-1.14-1.67l4.97-3.37c.37.55.74,1.09,1.11,1.63l-4.94,3.41ZM321.19,480.41c-.37-.56-.75-1.12-1.12-1.68l5.01-3.31c.37.55.73,1.1,1.1,1.65l-4.99,3.34ZM318.97,477.03c-.37-.56-.73-1.13-1.1-1.7l5.04-3.25c.36.56.72,1.11,1.08,1.67l-5.03,3.28ZM316.78,473.64c-.36-.57-.72-1.14-1.08-1.71l5.09-3.18c.35.56.7,1.12,1.05,1.67l-5.06,3.22ZM314.64,470.22c-.35-.57-.71-1.14-1.05-1.72l5.12-3.13c.34.56.69,1.13,1.04,1.69l-5.1,3.15ZM312.54,466.77c-.35-.58-.69-1.15-1.03-1.73l5.16-3.06c.33.57.67,1.13,1.01,1.7l-5.14,3.09Z"></path>
        <g>
          <path class="cls-1" d="M747.5,433.13c-.07-.04-.15-.08-.24-.11l2.59-7.57c.55.19,1.08.43,1.58.71l-3.93,6.97Z"></path>
          <path class="cls-1" d="M523.11,769.98c-.37-.36-.79-.73-1.26-1.12l5.12-6.15c.62.52,1.2,1.04,1.71,1.54l-5.58,5.74ZM519.73,767.23l-.48-.33c-.5-.34-.98-.72-1.43-1.12l5.26-6.02c.23.2.48.39.73.57l.54.38-4.62,6.53ZM515.19,762.84c-.48-.69-.92-1.43-1.32-2.22l7.15-3.58c.22.44.46.84.72,1.21l-6.55,4.59ZM512.53,757.22c-.21-.69-.4-1.41-.58-2.21l7.8-1.78c.14.61.28,1.15.43,1.65l-7.65,2.34ZM511.33,751.99c-.05-.25-.2-1-.33-1.34l7.5-2.78c.3.8.5,1.69.67,2.52l-7.84,1.59ZM509.82,749.36c-.51-.65-.99-1.34-1.41-2.04l6.85-4.13c.25.42.54.84.86,1.24l-6.29,4.94ZM506.78,743.94c-.28-.77-.52-1.57-.71-2.38l7.79-1.81c.11.49.26.97.43,1.44l-7.51,2.76ZM505.56,737.92c-.03-.45-.04-.91-.04-1.36,0-.34,0-.69.02-1.03l7.99.33c0,.23-.01.47-.01.7,0,.3,0,.6.03.9l-7.99.46ZM513.79,733.37l-7.89-1.29c.12-.71.26-1.45.44-2.21l7.79,1.8c-.13.56-.24,1.13-.34,1.7ZM514.84,729.07l-7.64-2.37c.22-.7.44-1.38.67-2.02l7.56,2.62c-.2.56-.39,1.15-.58,1.77ZM516.42,724.54l-7.52-2.73c.23-.62.42-1.18.57-1.67l7.66,2.3c-.18.62-.43,1.32-.71,2.1ZM509.43,719.37c-.2-.77-.36-1.56-.48-2.35l7.91-1.2c.08.52.19,1.04.32,1.56l-7.75,1.99ZM516.69,713.44h-8c0-.79.04-1.59.12-2.39l7.96.79c-.05.54-.08,1.08-.08,1.6ZM517.18,709.43l-7.78-1.86c.18-.73.39-1.48.62-2.22l7.61,2.46c-.17.54-.33,1.09-.46,1.62ZM518.55,705.41l-7.32-3.23c.3-.69.62-1.36.95-2l7.13,3.63c-.26.52-.52,1.05-.76,1.6ZM520.64,701.42l-6.88-4.09c.37-.63.75-1.23,1.11-1.79l6.76,4.28c-.32.51-.65,1.04-.99,1.6ZM523.24,697.29l-6.76-4.28c.25-.4.6-.96.79-1.35l7.18,3.54c-.28.57-.65,1.2-1.21,2.1ZM517.17,691.69c-.11-.35-.28-.81-.55-1.44l7.35-3.17c.4.93.67,1.63.87,2.29l-7.66,2.32ZM515.41,687.56c-.28-.63-.56-1.29-.84-1.97l7.43-2.97c.23.59.48,1.16.72,1.7l-7.31,3.24ZM513.46,682.38c-.22-.78-.41-1.55-.55-2.29l7.86-1.5c.1.51.22,1.04.38,1.59l-7.69,2.2ZM512.53,676.41v-.31c0-.59.03-1.19.08-1.78l.04-.39,7.95.87-.02.25c-.03.36-.05.71-.05,1.05v.21s-8,.09-8,.09ZM521.02,672.43l-7.75-1.98c.2-.79.44-1.56.72-2.31l7.5,2.79c-.18.48-.33.98-.47,1.5ZM522.47,668.85l-6.91-4.03c.4-.69.85-1.38,1.34-2.03l6.43,4.76c-.31.42-.6.85-.86,1.3ZM524.9,665.73l-5.69-5.63c.5-.5,1.03-1.01,1.64-1.55l5.31,5.99c-.41.36-.84.76-1.26,1.19ZM528.45,662.57l-5.35-5.95c.5-.45.63-.62.65-.65l6.74,4.3c-.59.93-1.37,1.68-2.05,2.3ZM523.43,655.98c-.08-.41-.2-.91-.4-1.6l7.7-2.18c.26.91.44,1.63.56,2.28l-7.86,1.5ZM522.19,651.54c-.2-.67-.39-1.36-.57-2.06l7.75-1.97c.15.61.32,1.21.49,1.79l-7.68,2.25ZM520.94,646.16c-.12-.82-.2-1.63-.24-2.39l7.99-.37c.02.49.08,1.02.16,1.57l-7.91,1.19ZM528.81,641.21l-7.91-1.22c.12-.75.26-1.5.41-2.21l7.81,1.72c-.12.54-.23,1.11-.32,1.71ZM529.81,637.07l-7.56-2.61c.26-.76.56-1.5.87-2.2l7.29,3.3c-.21.47-.42.98-.59,1.5ZM531.54,633.52l-6.66-4.43c.45-.68.94-1.34,1.47-1.96l6.12,5.15c-.33.39-.64.8-.92,1.23ZM534.12,630.61l-5.24-6.05c.57-.49,1.18-.98,1.82-1.44l4.72,6.46c-.47.34-.9.68-1.3,1.04ZM537.63,628.11l-4.15-6.84c.6-.36,1.2-.72,1.82-1.07l3.95,6.96c-.55.31-1.09.63-1.62.95ZM542.88,623.07l-7.39-3.06c.19-.47.4-1.04.63-1.67l7.54,2.67c-.28.79-.54,1.48-.78,2.07ZM544.64,618.16l-7.55-2.65c.22-.62.45-1.27.69-1.94l7.51,2.76c-.23.63-.45,1.24-.65,1.82ZM546.33,613.7l-7.39-3.06c.27-.65.55-1.31.85-1.97l7.28,3.33c-.26.56-.5,1.13-.74,1.7ZM548.27,609.59l-7.01-3.85c.38-.68.76-1.34,1.15-1.94l6.74,4.31c-.31.48-.6.98-.88,1.49ZM550.59,606.13l-6.08-5.19c.22-.26.45-.51.68-.76.33-.35.69-.7,1.07-1.04l5.37,5.93c-.21.19-.41.39-.6.59-.15.16-.29.31-.43.48ZM553.5,603.63l-4.38-6.69c.62-.4,1.28-.8,1.97-1.18l3.87,7c-.51.28-1,.58-1.45.87ZM557.32,601.59l-3.25-7.31c.66-.29,1.33-.57,2.01-.84l2.91,7.45c-.57.22-1.12.45-1.67.7ZM561.59,599.97l-2.47-7.61c.68-.22,1.36-.43,2.04-.62l2.21,7.69c-.59.17-1.19.35-1.78.54ZM566.09,598.71l-1.85-7.78c.7-.17,1.39-.32,2.07-.46l1.61,7.84c-.6.12-1.21.26-1.83.41ZM570.68,597.81l-1.24-7.9c.73-.11,1.43-.21,2.11-.3l.98,7.94c-.59.07-1.21.16-1.84.26ZM575.24,597.3l-.36-6.41,4.88,4c-1.25,1.52-2.68,2.32-4.26,2.39h-.26ZM581.77,591.79l-6.98-3.91c.24-.42.48-.86.72-1.32l.21-.39,7.02,3.83-.21.39c-.26.48-.52.95-.77,1.4ZM573.5,589.89l.07-.08h0s-.06.06-.08.08ZM574.79,589.33v-.02s.32-.02.32-.02c-.11,0-.22.02-.32.03ZM584.14,587.53l-6.87-4.1c.42-.71.83-1.34,1.23-1.92l6.56,4.58c-.29.42-.6.9-.93,1.44ZM586.41,584.48l-5.38-5.92c.18-.16.36-.31.54-.46.47-.37.97-.75,1.49-1.1l4.49,6.62c-.33.23-.66.47-.99.73-.06.04-.11.09-.15.13ZM589.71,582.36l-3.65-7.12c.67-.35,1.34-.66,2-.95l3.26,7.31c-.53.23-1.06.49-1.61.76ZM594.01,580.45l-3.14-7.36c.5-.21,1.08-.46,1.56-.71l3.65,7.12c-.7.36-1.44.68-2.07.95ZM599.98,576.15l-6.86-4.12c-.04.06-.07.13-.1.19.03-.06.11-.28.2-.78l7.86,1.51c-.17.88-.38,1.63-.64,2.28-.12.31-.28.62-.46.91ZM601.52,569.59l-7.97-.7c.05-.59.1-1.22.15-1.86l4,.22,3.98.38c-.05.68-.1,1.33-.16,1.96ZM601.91,564.64l-7.96-.74c.07-.7.14-1.41.23-2.11l7.94,1c-.08.62-.14,1.24-.2,1.86ZM602.54,560.14l-7.83-1.63c.15-.72.33-1.45.53-2.18l7.71,2.12c-.15.56-.29,1.12-.41,1.69ZM603.77,555.95l-7.49-2.81c.26-.7.55-1.4.85-2.07l7.3,3.27c-.24.53-.46,1.07-.66,1.61ZM605.61,552.01l-6.96-3.95c.37-.66.77-1.31,1.18-1.93l6.68,4.4c-.31.47-.61.97-.9,1.47ZM608.03,548.47l-6.18-5.08c.49-.6,1-1.17,1.53-1.72l5.77,5.54c-.38.4-.76.82-1.12,1.26ZM610.98,545.52l-5.03-6.22c.41-.33.83-.65,1.25-.95.21-.15.42-.3.64-.44l4.46,6.64c-.15.1-.3.21-.45.31-.3.21-.58.43-.87.66ZM614.51,543.23l-3.75-7.07c.65-.34,1.31-.67,1.97-.98l3.38,7.25c-.54.25-1.08.52-1.6.79ZM618.63,541.36l-2.92-7.45c.66-.26,1.32-.51,1.98-.74l2.7,7.53c-.58.21-1.17.43-1.76.66ZM623.1,539.78l-2.45-7.62c.67-.21,1.32-.42,1.96-.61l2.34,7.65c-.6.18-1.22.38-1.85.58ZM627.81,538.34l-2.33-7.65c.65-.2,1.26-.39,1.81-.57l2.51,7.6c-.61.2-1.28.41-2,.63ZM633.42,536.17l-4.07-6.56,6.77,3.48c-.4.79-.89,1.49-1.45,2.08-.36.38-.77.7-1.25,1.01ZM628.86,529.67s.06-.07.15-.24l.07.04c-.06.05-.13.11-.21.2ZM637.4,529.25l-7.83-1.65c.12-.55.22-1.14.31-1.75l7.9,1.24c-.12.76-.24,1.49-.39,2.17ZM638.23,524.11l-7.91-1.22c.11-.69.22-1.39.36-2.1l7.86,1.48c-.12.62-.22,1.23-.31,1.84ZM639.14,519.71l-7.69-2.19c.22-.78.47-1.52.74-2.23l7.47,2.86c-.19.49-.36,1-.52,1.56ZM640.65,516.04l-6.91-4.03c.21-.37.44-.73.68-1.08.25-.38.52-.73.8-1.08l6.2,5.06c-.13.16-.25.32-.36.49-.14.21-.28.42-.4.64ZM642.87,513.54l-4.78-6.41c.65-.49,1.36-.94,2.11-1.36l3.91,6.98c-.45.25-.86.52-1.24.8ZM646.3,511.74l-2.85-7.47c.68-.26,1.41-.51,2.16-.73l2.3,7.66c-.57.17-1.11.35-1.62.55ZM650.5,510.53l-1.68-7.82c.73-.16,1.43-.29,2.09-.41l1.42,7.87c-.58.1-1.19.22-1.83.36ZM655.32,509.65l-.92-4.85,5.85.72-.02.11c-.43,3.16-3.58,3.76-4.92,4.01ZM660.75,503.06l-7.74-2.03c.19-.74.42-1.48.67-2.21l7.56,2.63c-.18.53-.35,1.07-.49,1.61ZM653.87,501.97l-.03-.18c.27-.05.5-.09.67-.15-.19.06-.41.17-.63.32ZM662.2,499.12l-7.2-3.49c.34-.7.7-1.38,1.09-2.04l6.9,4.04c-.28.48-.54.98-.79,1.49ZM664.39,495.57l-6.36-4.86c.47-.62.98-1.22,1.5-1.79l5.92,5.38c-.37.4-.72.83-1.06,1.27ZM667.23,492.58l-5.18-6.1c.6-.5,1.22-.99,1.86-1.44l4.61,6.54c-.44.31-.88.65-1.29,1ZM670.62,490.29l-3.71-7.09c.28-.15.57-.29.86-.43.42-.2.84-.39,1.27-.57l3.05,7.39c-.29.12-.58.25-.86.38-.21.1-.41.2-.61.31ZM674.49,488.78l-2.19-7.7c.69-.19,1.42-.38,2.17-.54l1.72,7.81c-.57.12-1.14.27-1.7.43ZM678.88,487.86l-1.22-7.91c.71-.11,1.41-.2,2.09-.29l1,7.94c-.61.08-1.23.16-1.87.26ZM683.68,487.26l-.92-7.95c.67-.08,1.28-.15,1.85-.24l1.19,7.91c-.64.1-1.35.18-2.11.27ZM690.17,485.64l-3.57-5.78,6.34,1.85c-.41,1.4-1.02,2.47-1.88,3.26-.27.25-.57.47-.89.67ZM685.2,479.64c.02-.05.04-.11.06-.17h.04c-.07.11-.09.17-.09.17ZM693.62,478.25l-7.91-1.19.02-.1c.09-.62.19-1.27.31-1.95l7.89,1.35c-.11.62-.2,1.22-.28,1.79v.1ZM694.46,473.82l-7.71-2.12c.22-.8.47-1.57.75-2.29l7.46,2.9c-.18.46-.34.97-.49,1.5ZM695.92,470.39l-6.7-4.38c.49-.75,1.04-1.45,1.63-2.09l5.88,5.43c-.29.32-.57.67-.81,1.05ZM698.09,468.29l-3.9-6.99c.63-.35,1.36-.71,2.16-1.05l3.17,7.35c-.55.24-1.03.47-1.43.69ZM702.03,466.64l-2.59-7.57c.67-.23,1.35-.45,2.01-.65l2.36,7.64c-.59.18-1.19.38-1.79.58ZM706.59,465.25l-2.16-7.7,1.53-.43s0-.04,0-.05h.15s.24-.05.24-.05l.03.09,7.56.65c-.08.88-.14,1.64-.25,2.28l-6.79-1.1,1.62,5.77-1.93.54ZM714.22,454.95l-7.93-1.04c.11-.8.22-1.53.35-2.22l7.85,1.52c-.11.58-.2,1.17-.27,1.73ZM715.11,450.91l-7.54-2.68c.31-.88.68-1.69,1.09-2.43l6.98,3.91c-.19.35-.37.75-.54,1.21ZM716.48,448.65l-4.85-6.36c.9-.69,1.91-1.21,2.99-1.55l2.38,7.64c-.19.06-.36.15-.52.27ZM720.93,446.8l-4.69-6.48c.08-.05.21-.19.45-.52l6.52,4.64c-.71,1-1.44,1.75-2.28,2.36ZM724.88,441.83l-6.65-4.44c.5-.74.99-1.4,1.52-2l6.03,5.26c-.3.34-.58.71-.89,1.17ZM727.29,439.28l-4.64-6.51c.66-.47,1.38-.92,2.15-1.32l3.74,7.07c-.45.24-.87.49-1.24.76ZM730.73,437.58l-2.64-7.55c.64-.22,1.31-.43,2-.62l.09-.02,2.22,7.69-.08.02s-.09.03-.11.03c-.53.15-1.02.3-1.49.46ZM735.46,436.1l-2.59-7.57c.61-.21,1.22-.43,1.82-.64l2.72,7.52c-.64.23-1.29.46-1.94.69ZM740.19,434.41l-2.66-7.54c.68-.24,1.35-.47,2-.68l2.44,7.62c-.58.19-1.17.39-1.78.6ZM744.45,433.12l-1.64-7.83c.9-.19,1.72-.31,2.52-.36l.55,7.98c-.42.03-.9.1-1.43.21Z"></path>
          <path class="cls-1" d="M524.57,771.71s-.03-.06-.06-.1h.01c.03.06.04.1.04.1ZM525.65,770.91l5.68-3.48c.62,1.02.86,1.8.94,2.27l-6.63,1.21Z"></path>
        </g>
        <path class="cls-1" d="M649.94,581.55l-4.73-3.69c.35-.45.77-.99,1.25-1.59l4.7,3.73c-.47.59-.88,1.11-1.22,1.56ZM652.4,578.44l-4.67-3.76c.4-.5.83-1.02,1.28-1.57l4.64,3.8c-.44.54-.86,1.05-1.25,1.54ZM654.91,575.39l-4.6-3.85c.42-.51.86-1.02,1.3-1.55l4.57,3.88c-.44.51-.86,1.02-1.28,1.52ZM657.46,572.37l-4.53-3.93c.44-.51.89-1.02,1.34-1.53l4.49,3.98c-.44.5-.87.99-1.3,1.48ZM660.08,569.43l-4.44-4.03c.46-.51.92-1.01,1.39-1.51l4.38,4.1c-.44.48-.89.96-1.33,1.44ZM662.75,566.57l-4.31-4.17c.48-.5.97-.99,1.45-1.47l4.23,4.25c-.45.45-.91.91-1.36,1.38ZM665.5,563.85l-4.12-4.36c.46-.44.92-.86,1.37-1.26l.17-.16,3.98,4.49-.15.13c-.42.38-.84.76-1.26,1.16ZM668.39,561.24l-3.96-4.51c.5-.44,1.01-.89,1.52-1.33l3.93,4.53c-.5.43-1,.87-1.49,1.3ZM671.38,558.65l-3.89-4.56c.51-.43,1.02-.87,1.54-1.31l3.86,4.59c-.51.43-1.01.85-1.51,1.28ZM674.4,556.11l-3.82-4.62c.52-.43,1.04-.85,1.57-1.28l3.78,4.66c-.52.42-1.03.84-1.53,1.25ZM677.47,553.62l-3.74-4.69c.52-.42,1.05-.83,1.58-1.25l3.71,4.72c-.53.41-1.04.82-1.55,1.23ZM680.58,551.18l-3.67-4.75c.53-.41,1.06-.82,1.61-1.23l3.63,4.78c-.53.4-1.05.8-1.57,1.2ZM683.73,548.79l-3.59-4.81c.53-.4,1.07-.8,1.62-1.2l3.56,4.83c-.54.4-1.07.79-1.59,1.18ZM686.91,546.44l-3.53-4.85c.54-.39,1.08-.78,1.64-1.18l3.49,4.88c-.54.39-1.08.77-1.6,1.16ZM690.13,544.14l-3.46-4.9,1.65-1.16,3.44,4.92-1.62,1.14ZM693.38,541.86l-3.42-4.93c.54-.37,1.08-.75,1.62-1.13l3.45,4.91c-.55.39-1.11.78-1.66,1.16ZM696.69,539.54l-3.48-4.89c.54-.38,1.07-.77,1.61-1.15l3.5,4.87c-.55.4-1.1.79-1.64,1.17ZM699.96,537.19l-3.53-4.85,1.6-1.17,3.55,4.84-1.63,1.19ZM703.2,534.8l-3.57-4.82c.53-.39,1.06-.79,1.59-1.19l3.6,4.8c-.54.41-1.08.81-1.62,1.21ZM706.43,532.39l-3.61-4.79,1.58-1.2,3.63,4.78-1.61,1.22ZM709.64,529.95l-3.65-4.76,1.58-1.21,3.67,4.75-1.6,1.23ZM712.82,527.49l-3.69-4.74,1.57-1.22,3.71,4.72-1.59,1.24ZM715.99,525l-3.72-4.71,1.56-1.24,3.74,4.69-1.58,1.25ZM719.13,522.5l-3.75-4.69c.52-.41,1.03-.83,1.54-1.24l3.77,4.67c-.52.42-1.04.84-1.57,1.26ZM722.26,519.97l-3.79-4.66,1.54-1.26,3.8,4.64-1.56,1.27ZM725.37,517.42l-3.82-4.63,1.53-1.27,3.84,4.61-1.55,1.28ZM728.47,514.85l-3.86-4.59.41-.35c.35-.29.7-.59,1.05-.91l3.98,4.49c-.39.35-.79.69-1.17,1.01l-.4.34ZM731.58,512.09l-4.1-4.38c.46-.43.92-.87,1.39-1.33l4.21,4.27c-.5.5-1,.98-1.5,1.44ZM734.53,509.18l-4.3-4.18c.44-.46.89-.93,1.34-1.41l4.38,4.1c-.48.51-.95,1-1.42,1.49ZM737.34,506.19l-4.45-4.03c.43-.48.87-.96,1.3-1.46l4.51,3.96c-.46.52-.91,1.03-1.36,1.53ZM740.04,503.12l-4.56-3.9c.42-.49.84-.99,1.27-1.5l4.61,3.84c-.44.53-.88,1.05-1.32,1.56ZM742.65,500l-4.65-3.8c.41-.5.82-1.01,1.24-1.53l4.69,3.74c-.43.53-.85,1.06-1.28,1.58ZM745.18,496.82l-4.72-3.7c.4-.51.81-1.03,1.21-1.56l4.76,3.66c-.42.54-.83,1.07-1.24,1.6ZM747.65,493.61l-4.78-3.62c.39-.52.79-1.05,1.18-1.58l4.82,3.57c-.41.55-.81,1.09-1.22,1.63ZM750.07,490.35l-4.85-3.54c.39-.53.77-1.06,1.16-1.6l4.87,3.5c-.4.55-.79,1.1-1.19,1.64ZM752.43,487.07l-4.89-3.47c.38-.54.76-1.07,1.14-1.62l4.92,3.43c-.39.56-.78,1.11-1.17,1.66ZM754.74,483.76l-4.94-3.41c.37-.54.74-1.08,1.11-1.63l4.97,3.37c-.38.56-.76,1.12-1.14,1.67ZM757.02,480.41l-4.99-3.34c.37-.55.74-1.1,1.1-1.65l5.01,3.31c-.37.56-.75,1.13-1.12,1.68ZM759.24,477.04l-5.03-3.28c.36-.55.72-1.11,1.08-1.67l5.04,3.25c-.36.57-.73,1.13-1.1,1.7ZM761.43,473.64l-5.06-3.22c.35-.56.71-1.11,1.05-1.67l5.09,3.18c-.36.57-.72,1.14-1.08,1.71ZM763.57,470.22l-5.1-3.15c.35-.56.69-1.13,1.04-1.69l5.12,3.13c-.35.57-.7,1.15-1.05,1.72ZM765.67,466.77l-5.14-3.09c.34-.57.68-1.13,1.01-1.7l5.16,3.06c-.34.58-.69,1.15-1.03,1.73Z"></path>
        <path class="cls-1" d="M539.12,800.26c-6.52,0-11.82-5.3-11.82-11.82s5.3-11.82,11.82-11.82,11.82,5.3,11.82,11.82-5.3,11.82-11.82,11.82ZM539.12,782.63c-3.21,0-5.82,2.61-5.82,5.82s2.61,5.82,5.82,5.82,5.82-2.61,5.82-5.82-2.61-5.82-5.82-5.82Z"></path>
      </g>
    </g>
  </g>
</svg>