<svg viewBox="0 0 1080 1080" version="1.1" xmlns="http://www.w3.org/2000/svg">
  <defs>
    <style>
      .cls-1 {
        fill: #291313;
      }
    </style>
  </defs>
  
  <g>
    <g data-name="レイヤー_1" id="_レイヤー_1">
      <g>
        <g>
          <path d="M439.13,517.15c-6.22,0-12.86-.21-19.72-.74-6.8-.52-12.62-1.4-18.78-2.33-10.19-1.54-20.73-3.12-37.25-3.3-9.58-.1-25.95,1.09-40.39,2.13-8.75.64-17.01,1.23-23.18,1.51-9.04.41-14.5.65-16.23-4.52-1-2.98-12.05-63.98-12.16-64.6-2.17-11.97-5.24-29.11-7.58-42.81-3.66-21.43-3.6-21.56-2.5-23.74,1.3-2.6,3.13-3.38,13.29-7.69,7.53-3.2,20.14-8.54,23.98-11.82,21.88-18.65,37.93-51.9,46.55-69.76,1.23-2.55,2.32-4.8,3.26-6.68,1.04-2.07,2.24-4.43,3.53-6.98,7.14-14.07,19.1-37.63,20.72-46.21-.25-13.37-6.37-127.07-7.45-138.24-.41-4.26,2.43-9.25,11.63-10.45,8.47-1.11,14.29,1.51,15.17,6.84,1.04,6.28,2.59,33.1,4.08,60.03.39,7.03.7,12.58.84,14.58.04.6,4.1,61.2,3,69.51-1.71,12.9-8.6,25.79-15.27,38.26-.74,1.38-1.47,2.75-2.2,4.13-4.46,8.43-10.03,20.72-15.28,33.72l-.09.22c-1.05,2.59-2.5,6.19-3.11,8.76,7.35-.11,15.88.3,24.15.7,4.2.2,8.16.4,11.78.51,31.11.97,54.76,6.67,63.49,9.08,30.19,8.33,47.04,27.62,52.89,35.52,4.39,5.93,4.86,6.9,7.82,13.86.49,1.15,1.06,2.49,1.75,4.08,1.31,3.04-.08,6.57-3.13,7.89-3.04,1.32-6.57-.08-7.89-3.13-.7-1.61-1.27-2.97-1.77-4.14-2.69-6.31-2.74-6.43-6.44-11.43-5.1-6.9-19.84-23.76-46.43-31.09-8.31-2.29-30.85-7.72-60.67-8.66-3.72-.12-7.73-.31-11.98-.52-8.9-.43-18.11-.88-25.46-.64-2.71.1-5.37-.93-7.32-2.78-1.95-1.85-3.05-4.35-3.09-7.02-.08-4.72,2.24-10.45,4.28-15.5l.09-.22c5.4-13.37,11.16-26.07,15.81-34.84.74-1.39,1.48-2.78,2.22-4.17,6.44-12.06,12.53-23.45,13.96-34.19.68-5.15-1.83-49.66-3.07-67.07-.15-2.09-.44-7.41-.85-14.77-.91-16.37-2.51-45.29-3.57-55.77-1.03,0-2.21.1-3.16.3,1.52,20.79,7.04,123.71,7.27,136.42.02.87-.05,1.66-.2,2.44-1.79,9.47-11.34,28.78-21.81,49.41-1.29,2.53-2.47,4.87-3.5,6.93-.92,1.83-1.98,4.03-3.18,6.52-9,18.66-25.76,53.38-49.57,73.68-4.85,4.13-15.13,8.66-27.08,13.73-2.06.88-4.42,1.88-6.22,2.68,2.67,18.12,17.43,98.92,21.17,117.82,5.82-.06,17.83-.93,27.87-1.66,14.67-1.06,31.29-2.27,41.39-2.17,17.36.18,28.81,1.91,38.91,3.43,5.94.9,11.55,1.74,17.92,2.23,18.99,1.46,36.2.38,47.28-.79,5.74-.6,15.23-2.59,25.28-4.68,16.28-3.4,34.74-7.25,47-7.44,3.27-.05,6.04,2.59,6.09,5.91.05,3.31-2.59,6.04-5.91,6.09-11.12.17-28.98,3.9-44.74,7.19-10.8,2.26-20.13,4.2-26.48,4.87-7.59.8-17.92,1.56-29.74,1.56Z" class="cls-1"></path>
          <path d="M440.02,481.88c-18.82,0-38.44-4.08-52.21-11.54-32.16-17.43-55.82-47.27-79.12-99.77-.67-1.51.01-3.29,1.53-3.96,1.51-.67,3.29.01,3.96,1.53,22.72,51.19,45.6,80.17,76.49,96.92,19.28,10.45,52.29,13.85,75.15,7.72,26.95-7.22,57.66-11.56,74.08-12.11,1.67-.07,3.04,1.24,3.1,2.9.06,1.66-1.24,3.04-2.9,3.1-16.07.54-46.22,4.81-72.73,11.91-8.31,2.23-17.73,3.29-27.36,3.29Z" class="cls-1"></path>
          <g>
            <path d="M297.83,373.23c-.91,0-1.79-.5-2.23-1.37-.32-.63-.62-1.23-.9-1.8-.62-1.23-.12-2.74,1.12-3.35,1.24-.62,2.74-.12,3.35,1.12.28.55.58,1.15.89,1.77.62,1.23.13,2.74-1.1,3.36-.36.18-.75.27-1.13.27Z" class="cls-1"></path>
            <path d="M437.21,492.38c-.98,0-2.07-.02-3.25-.06-1.38-.05-2.46-1.21-2.41-2.59.05-1.38,1.18-2.44,2.59-2.41,1.11.04,2.14.06,3.07.06.26,0,.54,0,.81,0,1.35-.05,2.52,1.08,2.54,2.46.02,1.38-1.08,2.52-2.46,2.54-.3,0-.6,0-.89,0ZM448.06,491.75c-1.28,0-2.37-.97-2.49-2.27-.13-1.38.88-2.59,2.26-2.72,1.28-.12,2.6-.25,3.95-.4,1.37-.15,2.61.84,2.75,2.22.15,1.37-.84,2.61-2.22,2.75-1.37.15-2.72.29-4.03.41-.08,0-.16.01-.23.01ZM424.06,491.59c-.09,0-.17,0-.26-.01-1.31-.14-2.66-.29-4.03-.46-1.37-.17-2.34-1.42-2.17-2.79.17-1.37,1.42-2.34,2.79-2.17,1.34.17,2.65.32,3.93.45,1.37.14,2.37,1.37,2.23,2.75-.13,1.29-1.22,2.24-2.48,2.24ZM462,490.11c-1.23,0-2.3-.9-2.47-2.16-.19-1.37.76-2.63,2.13-2.82,1.33-.19,2.64-.38,3.94-.57,1.37-.21,2.64.73,2.85,2.1.21,1.37-.73,2.64-2.1,2.85-1.31.2-2.65.39-4,.58-.12.02-.23.02-.35.02ZM410.18,489.61c-.15,0-.3-.01-.45-.04-1.33-.24-2.66-.5-3.99-.78-1.35-.28-2.22-1.6-1.94-2.96.28-1.35,1.6-2.22,2.96-1.94,1.29.27,2.58.52,3.87.75,1.36.25,2.26,1.55,2.01,2.91-.22,1.21-1.27,2.05-2.46,2.05ZM475.85,487.86c-1.18,0-2.22-.83-2.45-2.03-.26-1.36.63-2.67,1.99-2.92,1.4-.27,2.7-.53,3.86-.79,1.35-.3,2.68.55,2.98,1.9.3,1.35-.55,2.68-1.9,2.98-1.2.27-2.55.54-4,.82-.16.03-.32.04-.47.04ZM396.52,486.46c-.23,0-.46-.03-.7-.1-1.35-.39-2.67-.8-3.92-1.22-1.31-.44-2.01-1.86-1.58-3.16.44-1.31,1.86-2.02,3.17-1.58,1.18.4,2.44.79,3.73,1.16,1.33.38,2.09,1.77,1.7,3.1-.32,1.09-1.32,1.8-2.4,1.8ZM489.47,484.53c-1.11,0-2.12-.75-2.42-1.87-.35-1.34.45-2.7,1.79-3.05,1.29-.34,2.59-.67,3.92-.99,1.34-.33,2.69.49,3.02,1.83.33,1.34-.49,2.69-1.83,3.02-1.3.32-2.58.65-3.85.97-.21.06-.42.08-.63.08ZM383.44,481.44c-.38,0-.76-.09-1.12-.27-1.2-.6-2.42-1.26-3.64-1.94-1.2-.68-1.63-2.2-.95-3.41s2.21-1.63,3.41-.95c1.15.65,2.3,1.26,3.43,1.83,1.23.62,1.73,2.12,1.11,3.36-.44.87-1.32,1.37-2.23,1.37ZM503.13,481.41c-1.18,0-2.23-.83-2.45-2.03-.26-1.36.63-2.67,1.99-2.92,1.3-.25,2.63-.48,4-.71,1.36-.23,2.65.7,2.88,2.06.23,1.36-.69,2.65-2.06,2.88-1.33.22-2.62.45-3.88.69-.16.03-.31.04-.47.04ZM516.98,479.31c-1.24,0-2.32-.92-2.48-2.19-.17-1.37.8-2.62,2.17-2.79,1.53-.19,2.85-.35,4.01-.48,1.38-.15,2.61.84,2.76,2.21.15,1.37-.84,2.61-2.21,2.76-1.14.13-2.44.28-3.94.47-.11.01-.21.02-.32.02ZM371.46,474.18c-.5,0-1-.15-1.44-.46-1.1-.77-2.21-1.59-3.3-2.41-1.1-.83-1.32-2.4-.49-3.5.83-1.1,2.4-1.32,3.5-.49,1.05.79,2.1,1.56,3.17,2.31,1.13.79,1.4,2.35.6,3.48-.49.69-1.26,1.06-2.05,1.06ZM360.47,465.49c-.59,0-1.17-.2-1.65-.62-1.02-.9-2.03-1.81-3.02-2.73-1.01-.94-1.07-2.52-.14-3.53.94-1.01,2.52-1.07,3.53-.14.96.89,1.94,1.77,2.93,2.64,1.04.91,1.14,2.49.23,3.53-.49.56-1.18.85-1.88.85ZM350.37,455.78c-.66,0-1.31-.26-1.81-.77-.94-.99-1.87-1.98-2.78-2.97-.93-1.02-.86-2.6.16-3.53,1.02-.93,2.6-.86,3.53.16.88.96,1.78,1.92,2.7,2.88.96,1,.92,2.58-.08,3.53-.48.46-1.11.69-1.73.69ZM341.08,445.28c-.72,0-1.44-.31-1.94-.92-.87-1.07-1.72-2.13-2.54-3.18-.85-1.09-.65-2.66.43-3.51,1.09-.85,2.66-.65,3.51.43.79,1.02,1.61,2.05,2.46,3.08.87,1.07.72,2.64-.35,3.52-.46.38-1.02.56-1.58.56ZM332.73,434.02c-.8,0-1.59-.39-2.08-1.1-.73-1.09-1.48-2.21-2.24-3.37-.75-1.16-.43-2.71.73-3.46,1.16-.75,2.71-.43,3.46.73.74,1.14,1.47,2.24,2.19,3.31.77,1.14.47,2.7-.67,3.47-.43.29-.91.43-1.4.43ZM325.17,422.2c-.84,0-1.66-.42-2.13-1.19-.69-1.13-1.39-2.28-2.09-3.44-.71-1.18-.33-2.72.85-3.43,1.18-.71,2.72-.33,3.43.85.69,1.15,1.38,2.29,2.07,3.41.72,1.18.35,2.72-.82,3.44-.41.25-.86.37-1.31.37ZM317.99,410.15c-.86,0-1.7-.45-2.16-1.25-.67-1.16-1.34-2.32-2.01-3.48-.69-1.2-.27-2.73.93-3.41,1.2-.69,2.73-.27,3.41.93.66,1.15,1.33,2.31,2,3.46.69,1.19.29,2.72-.91,3.42-.4.23-.83.34-1.25.34ZM311.07,397.96c-.88,0-1.73-.46-2.19-1.28-.66-1.18-1.31-2.36-1.95-3.52-.67-1.21-.23-2.73.98-3.4,1.21-.67,2.73-.23,3.4.98.63,1.15,1.28,2.32,1.94,3.5.67,1.21.24,2.73-.97,3.4-.39.21-.8.32-1.21.32ZM304.34,385.65c-.89,0-1.75-.48-2.21-1.32-.65-1.22-1.29-2.4-1.89-3.55-.65-1.22-.18-2.73,1.04-3.38,1.22-.65,2.73-.18,3.38,1.04.6,1.14,1.23,2.31,1.88,3.53.65,1.22.2,2.73-1.02,3.38-.38.2-.78.3-1.18.3Z" class="cls-1"></path>
            <path d="M530.83,478.27c-1.38,0-2.5-1.11-2.5-2.49,0-1.38,1.11-2.5,2.49-2.51h2.01c1.38,0,2.5,1.12,2.5,2.5s-1.12,2.5-2.5,2.5h-1.99s0,0,0,0Z" class="cls-1"></path>
          </g>
          <path d="M448.57,480.96c-.44,0-.89-.1-1.32-.31-14.41-7.06-40.79-29.23-55.62-49.77-26.17-36.24-34.41-80.25-36.31-92.87-.25-1.64.88-3.17,2.52-3.41,1.64-.25,3.17.88,3.41,2.52,1.85,12.29,9.86,55.11,35.24,90.25,13.9,19.25,39.66,41.17,53.4,47.9,1.49.73,2.1,2.53,1.37,4.01-.52,1.06-1.59,1.68-2.7,1.68Z" class="cls-1"></path>
          <path d="M472.99,474.71c-1.15,0-2.25-.66-2.74-1.78-8.2-18.45-10.54-27.41-14.79-43.67l-.29-1.09c-4.51-17.25-7.06-36.64-7.58-57.62-.04-1.66,1.27-3.03,2.92-3.07.03,0,.05,0,.08,0,1.62,0,2.96,1.29,3,2.93.51,20.52,2.99,39.44,7.38,56.25l.29,1.09c4.17,15.95,6.46,24.74,14.47,42.75.67,1.51,0,3.29-1.52,3.96-.4.18-.81.26-1.22.26Z" class="cls-1"></path>
          <g>
            <path d="M640.87,517.15c-11.82,0-22.15-.76-29.74-1.56-6.34-.67-15.67-2.62-26.48-4.87-15.76-3.29-33.62-7.02-44.74-7.19-3.31-.05-5.96-2.78-5.91-6.09.05-3.31,2.82-5.94,6.09-5.91,12.27.19,30.72,4.04,47,7.44,10.05,2.1,19.54,4.08,25.28,4.68,11.09,1.17,28.29,2.25,47.28.79,6.36-.49,11.98-1.33,17.92-2.23,10.1-1.52,21.55-3.25,38.91-3.43,10.08-.11,26.71,1.1,41.39,2.17,10.04.73,22.04,1.6,27.87,1.66,3.74-18.89,18.5-99.69,21.17-117.82-1.8-.8-4.16-1.8-6.22-2.68-11.95-5.07-22.23-9.6-27.08-13.73-23.8-20.29-40.56-55.02-49.57-73.68-1.2-2.49-2.26-4.69-3.18-6.52-1.03-2.06-2.22-4.39-3.5-6.93-10.47-20.63-20.02-39.93-21.81-49.41-.15-.78-.21-1.58-.2-2.44.23-12.71,5.74-115.63,7.27-136.42-.96-.19-2.14-.3-3.16-.3-1.06,10.47-2.67,39.4-3.57,55.77-.41,7.36-.7,12.68-.85,14.77-1.23,17.15-3.83,61.82-3.1,66.86,2.07,11.86,8.74,24.47,15.81,37.82l.4.75c4.65,8.78,10.41,21.48,15.81,34.84l.09.22c2.04,5.05,4.35,10.77,4.27,15.5-.04,2.67-1.14,5.17-3.09,7.02-1.95,1.86-4.62,2.88-7.32,2.78-7.35-.24-16.55.21-25.46.64-4.25.21-8.26.4-11.98.52-29.82.93-52.36,6.36-60.67,8.66-26.59,7.33-41.33,24.18-46.43,31.09-4.41,5.97-7.44,11.17-10.77,21.55-2.45,7.63-5.19,21.44-5.68,33.06-.58,13.77,1.93,36.04,1.95,36.26.38,3.29-1.99,6.27-5.28,6.64-3.3.38-6.27-1.99-6.64-5.28-.11-.95-2.64-23.43-2.02-38.12.54-12.68,3.55-27.82,6.24-36.22,3.82-11.9,7.49-18.18,12.54-25.01,5.84-7.91,22.7-27.2,52.89-35.52,8.72-2.41,32.37-8.11,63.48-9.08,3.62-.11,7.58-.31,11.78-.51,8.27-.4,16.8-.81,24.15-.7-.61-2.58-2.07-6.17-3.11-8.76l-.09-.22c-5.25-13-10.82-25.3-15.28-33.72l-.4-.75c-7.2-13.59-14.64-27.64-17.03-41.41-1.3-7.48,2.92-69.13,2.96-69.75.14-2,.45-7.55.84-14.58,1.49-26.93,3.04-53.75,4.08-60.03.89-5.33,6.7-7.95,15.17-6.84,9.21,1.21,12.05,6.19,11.64,10.45-1.08,11.18-7.2,124.88-7.44,138.25,1.61,8.58,13.57,32.13,20.71,46.2,1.3,2.55,2.49,4.91,3.53,6.98.94,1.88,2.03,4.13,3.26,6.68,8.62,17.86,24.66,51.11,46.55,69.76,3.84,3.27,16.45,8.62,23.98,11.82,10.16,4.31,11.99,5.08,13.29,7.69,1.09,2.19,1.16,2.32-2.5,23.74-2.34,13.7-5.42,30.84-7.58,42.81-.11.61-11.17,61.61-12.16,64.6-1.73,5.18-7.19,4.93-16.23,4.52-6.17-.28-14.43-.88-23.18-1.51-14.44-1.05-30.79-2.23-40.39-2.13-16.52.17-27.06,1.76-37.25,3.3-6.16.93-11.98,1.81-18.79,2.33-6.86.53-13.49.74-19.72.74Z" class="cls-1"></path>
            <path d="M639.98,481.88c-9.63,0-19.05-1.07-27.36-3.29-26.51-7.1-56.65-11.37-72.73-11.91-1.66-.06-2.95-1.44-2.9-3.1.06-1.66,1.47-2.97,3.1-2.9,16.42.55,47.13,4.89,74.08,12.11,22.86,6.13,55.87,2.73,75.15-7.72,30.9-16.75,53.77-45.74,76.49-96.93.67-1.51,2.44-2.2,3.96-1.52,1.51.67,2.2,2.44,1.53,3.96-23.3,52.5-46.96,82.33-79.12,99.77-13.76,7.46-33.39,11.54-52.21,11.54Z" class="cls-1"></path>
            <g>
              <path d="M782.17,373.23c-.38,0-.77-.09-1.13-.27-1.23-.62-1.72-2.13-1.1-3.36.32-.62.62-1.21.89-1.77.62-1.24,2.12-1.74,3.35-1.12,1.23.62,1.74,2.12,1.12,3.35-.28.56-.58,1.16-.91,1.8-.44.87-1.32,1.37-2.23,1.37Z" class="cls-1"></path>
              <path d="M642.79,492.38c-.29,0-.59,0-.89,0-1.38-.02-2.48-1.16-2.46-2.54.02-1.38,1.18-2.52,2.54-2.46.28,0,.55,0,.81,0,.93,0,1.95-.02,3.06-.06,1.4-.03,2.54,1.03,2.59,2.41.05,1.38-1.03,2.54-2.41,2.59-1.18.04-2.26.06-3.25.06ZM631.94,491.75c-.08,0-.16,0-.23-.01-1.31-.12-2.66-.26-4.03-.41-1.37-.15-2.36-1.38-2.21-2.76.15-1.37,1.39-2.36,2.76-2.21,1.35.15,2.67.28,3.95.4,1.37.13,2.39,1.35,2.26,2.72-.12,1.3-1.21,2.27-2.49,2.27ZM655.94,491.59c-1.26,0-2.35-.96-2.48-2.24-.14-1.37.85-2.6,2.23-2.75,1.28-.13,2.59-.28,3.93-.45,1.37-.17,2.62.8,2.79,2.17.17,1.37-.8,2.62-2.17,2.79-1.38.17-2.72.33-4.03.46-.09,0-.17.01-.26.01ZM618,490.11c-.11,0-.23,0-.35-.02-1.35-.19-2.68-.38-4-.58-1.37-.21-2.3-1.48-2.1-2.85.21-1.36,1.48-2.31,2.85-2.1,1.29.2,2.61.39,3.94.57,1.37.19,2.32,1.45,2.13,2.82-.17,1.25-1.25,2.16-2.47,2.16ZM669.82,489.62c-1.19,0-2.24-.85-2.46-2.05-.25-1.36.65-2.66,2.01-2.91,1.29-.23,2.58-.49,3.87-.75,1.35-.28,2.67.59,2.96,1.94.28,1.35-.59,2.68-1.94,2.96-1.33.28-2.66.54-3.99.78-.15.03-.3.04-.45.04ZM604.15,487.86c-.16,0-.31-.01-.47-.04-1.45-.28-2.8-.55-4-.82-1.35-.3-2.2-1.63-1.9-2.98.3-1.35,1.63-2.2,2.98-1.9,1.16.26,2.46.52,3.86.79,1.36.26,2.25,1.57,1.99,2.92-.23,1.2-1.28,2.03-2.45,2.03ZM683.48,486.46c-1.08,0-2.08-.71-2.4-1.8-.38-1.33.38-2.71,1.7-3.1,1.29-.37,2.54-.76,3.73-1.16,1.31-.43,2.73.27,3.17,1.58.44,1.31-.27,2.73-1.58,3.17-1.25.42-2.57.83-3.92,1.22-.23.07-.47.1-.7.1ZM590.53,484.53c-.21,0-.42-.03-.63-.08-1.26-.33-2.54-.65-3.85-.97-1.34-.33-2.16-1.68-1.83-3.02.33-1.34,1.68-2.16,3.02-1.83,1.33.33,2.63.66,3.92.99,1.34.35,2.14,1.71,1.79,3.05-.29,1.12-1.31,1.87-2.42,1.87ZM696.56,481.44c-.91,0-1.79-.5-2.23-1.37-.62-1.23-.13-2.74,1.11-3.36,1.13-.57,2.28-1.19,3.43-1.83,1.2-.68,2.73-.25,3.41.95.68,1.2.26,2.73-.95,3.41-1.21.69-2.44,1.34-3.64,1.95-.36.18-.75.27-1.12.27ZM576.87,481.41c-.16,0-.31-.01-.47-.04-1.26-.24-2.55-.47-3.88-.69-1.36-.23-2.28-1.51-2.06-2.88.23-1.36,1.51-2.28,2.88-2.06,1.37.23,2.7.47,4,.71,1.36.26,2.25,1.57,1.99,2.92-.23,1.2-1.28,2.03-2.45,2.03ZM563.02,479.31c-.1,0-.21,0-.32-.02-1.5-.19-2.79-.34-3.94-.47-1.37-.15-2.36-1.39-2.21-2.76.15-1.37,1.38-2.36,2.76-2.21,1.17.13,2.48.29,4.01.48,1.37.17,2.34,1.42,2.17,2.79-.16,1.26-1.24,2.19-2.48,2.19ZM708.54,474.18c-.79,0-1.56-.37-2.05-1.06-.79-1.13-.52-2.69.6-3.48,1.07-.75,2.12-1.52,3.17-2.31,1.1-.83,2.67-.61,3.5.49.83,1.1.61,2.67-.49,3.5-1.09.82-2.2,1.63-3.3,2.41-.44.31-.94.46-1.44.46ZM719.53,465.49c-.69,0-1.38-.29-1.88-.85-.91-1.04-.81-2.62.23-3.53.99-.87,1.96-1.75,2.93-2.64,1.01-.94,2.6-.88,3.53.14.94,1.01.88,2.6-.14,3.53-.99.92-2,1.83-3.02,2.73-.47.42-1.06.62-1.65.62ZM729.63,455.78c-.62,0-1.24-.23-1.73-.69-1-.96-1.03-2.54-.08-3.54.92-.96,1.82-1.92,2.7-2.88.93-1.02,2.51-1.09,3.53-.16,1.02.93,1.09,2.51.16,3.53-.91.99-1.83,1.98-2.78,2.97-.49.51-1.15.77-1.81.77ZM738.92,445.28c-.56,0-1.12-.18-1.58-.56-1.07-.87-1.23-2.45-.35-3.52.85-1.04,1.67-2.07,2.46-3.09.85-1.09,2.42-1.28,3.51-.43,1.09.85,1.28,2.42.43,3.51-.82,1.05-1.66,2.11-2.53,3.17-.49.6-1.21.92-1.94.92ZM747.27,434.02c-.48,0-.97-.14-1.39-.43-1.15-.77-1.45-2.32-.68-3.47.72-1.07,1.45-2.17,2.19-3.31.75-1.16,2.31-1.48,3.46-.73,1.16.75,1.48,2.3.73,3.46-.76,1.16-1.5,2.28-2.23,3.37-.48.72-1.27,1.1-2.08,1.1ZM754.83,422.2c-.45,0-.9-.12-1.31-.37-1.18-.72-1.54-2.26-.82-3.44.69-1.12,1.38-2.26,2.07-3.41.71-1.18,2.25-1.56,3.43-.85,1.18.71,1.56,2.25.85,3.43-.7,1.16-1.4,2.31-2.09,3.44-.47.77-1.29,1.19-2.13,1.19ZM762.01,410.15c-.43,0-.86-.11-1.25-.34-1.2-.69-1.6-2.22-.91-3.42.67-1.15,1.33-2.31,2-3.46.69-1.2,2.21-1.61,3.41-.93,1.2.69,1.61,2.21.93,3.41-.67,1.16-1.33,2.32-2.01,3.48-.46.8-1.3,1.25-2.17,1.25ZM768.93,397.96c-.41,0-.83-.1-1.21-.32-1.21-.67-1.64-2.19-.97-3.4.66-1.18,1.3-2.35,1.94-3.5.67-1.21,2.19-1.65,3.4-.98,1.21.67,1.65,2.19.98,3.4-.64,1.16-1.29,2.33-1.95,3.51-.46.82-1.31,1.29-2.19,1.29ZM775.66,385.65c-.4,0-.8-.1-1.18-.3-1.22-.65-1.67-2.17-1.02-3.38.65-1.21,1.28-2.39,1.88-3.53.65-1.22,2.16-1.68,3.38-1.04,1.22.65,1.69,2.16,1.04,3.38-.61,1.14-1.24,2.33-1.89,3.55-.45.84-1.31,1.32-2.21,1.32Z" class="cls-1"></path>
              <path d="M549.17,478.27h-2c-1.38,0-2.5-1.12-2.5-2.5s1.12-2.5,2.5-2.5h2.01c1.38,0,2.5,1.13,2.49,2.51,0,1.38-1.12,2.49-2.5,2.49Z" class="cls-1"></path>
            </g>
            <path d="M631.43,480.96c-1.11,0-2.18-.62-2.7-1.68-.73-1.49-.11-3.29,1.37-4.01,13.74-6.73,39.5-28.64,53.4-47.9,25.38-35.14,33.39-77.97,35.24-90.25.25-1.64,1.78-2.77,3.41-2.52,1.64.25,2.77,1.77,2.52,3.41-1.9,12.62-10.14,56.63-36.31,92.87-14.83,20.54-41.22,42.72-55.62,49.77-.42.21-.87.31-1.32.31Z" class="cls-1"></path>
            <path d="M607.01,474.71c-.41,0-.82-.08-1.22-.26-1.51-.67-2.2-2.45-1.52-3.96,8-18.01,10.3-26.8,14.47-42.76l.28-1.08c4.39-16.81,6.88-35.73,7.38-56.25.04-1.66,1.44-2.96,3.07-2.93,1.66.04,2.97,1.42,2.93,3.07-.52,20.98-3.07,40.36-7.58,57.62l-.28,1.08c-4.25,16.26-6.59,25.22-14.79,43.68-.5,1.12-1.59,1.78-2.74,1.78Z" class="cls-1"></path>
          </g>
          <g>
            <path d="M397.08,234.49l-3.88-6.99c.59-.33,1.23-.59,1.9-.76l1.98,7.75Z" class="cls-1"></path>
            <path d="M532.26,356.57c-.06-.46-.15-.87-.28-1.27l7.63-2.4c.26.84.45,1.69.57,2.61l-7.93,1.06ZM531.18,353.62c-.23-.35-.51-.71-.83-1.05l5.87-5.43c.61.66,1.16,1.36,1.63,2.07l-6.68,4.41ZM528.81,351.31c-.41-.27-.87-.53-1.37-.79l3.66-7.12c.74.38,1.44.79,2.08,1.2l-4.37,6.7ZM525.11,349.49c-.55-.21-1.11-.4-1.67-.58l2.43-7.62c.71.23,1.41.47,2.09.73l-2.85,7.47ZM520.83,348.18c-.6-.15-1.19-.28-1.77-.39l1.55-7.85c.69.14,1.4.29,2.12.47l-1.89,7.77ZM516.39,347.35c-.62-.08-1.2-.13-1.73-.16l.44-7.23-5.74,3.36c-.28-.48-.57-1.02-.88-1.58l-.15-.27,7.02-3.83.15.28c.26.48.51.94.75,1.35h-.02c.37.05.75.09,1.14.14l-.99,7.94ZM507,339.19c-.29-.43-.54-.77-.77-1l5.76-5.55c.57.59,1.12,1.29,1.68,2.14l-6.67,4.42ZM504.72,337.13c-.42-.24-.9-.48-1.45-.73l3.32-7.28c.78.35,1.46.7,2.1,1.07l-3.97,6.95ZM500.53,335.21c-.79-.36-1.81-.87-2.68-1.63l5.25-6.03-.02-.02s.2.14.76.4l-3.31,7.28ZM495.48,328.35c-.08-.66-.15-1.39-.21-2.18l7.98-.61c.05.64.1,1.25.17,1.79l-7.94,1ZM495.04,323.29c-.06-.58-.13-1.17-.22-1.74l7.9-1.27c.12.73.21,1.47.28,2.21l-7.96.8ZM494.27,319.17c-.16-.52-.34-1.04-.54-1.54l7.42-2.99c.29.72.55,1.47.78,2.21l-7.66,2.32ZM492.66,315.44c-.27-.47-.56-.92-.86-1.35l6.52-4.64c.45.64.88,1.31,1.28,2l-6.94,3.98ZM490.3,312.3c-.36-.36-.73-.7-1.11-1l4.95-6.29c.64.5,1.26,1.06,1.85,1.65l-5.68,5.63ZM487.36,310.16c-.44-.22-.94-.44-1.48-.64l2.87-7.47c.77.3,1.5.61,2.17.94l-3.55,7.17ZM483.36,308.69c-.62-.18-1.23-.34-1.82-.5l2.02-7.74c.66.17,1.34.35,2.02.55l-2.22,7.68ZM478.59,307.42c-.93-.26-1.65-.49-2.27-.73l2.39-6.15-6.88,1.09c-.07-.45-.14-.99-.21-1.61l-.06-.51,7.94-.97.06.52c.01.1.02.2.04.3.31.1.69.22,1.14.34l-2.14,7.71ZM471.15,296.81c-.11-.6-.23-1.14-.37-1.65l7.73-2.06c.19.71.35,1.44.5,2.23l-7.86,1.48ZM470.01,292.94c-.2-.45-.42-.87-.66-1.24l6.75-4.29c.44.7.85,1.46,1.21,2.27l-7.3,3.27ZM468.15,290.26c-.29-.26-.61-.49-.95-.69l4.02-6.92c.81.47,1.57,1.02,2.26,1.64l-5.32,5.97ZM465.34,288.81c-.57-.17-1.17-.3-1.63-.39l1.63-7.83c.6.13,1.4.3,2.23.54l-2.23,7.68ZM460.54,287.72c-1.03-.28-1.91-.63-2.69-1.05l3.8-7.04c.24.13.58.25,1.02.38l-2.13,7.71ZM454.33,283.55c-.5-.67-.95-1.43-1.38-2.31l7.17-3.54c.22.46.44.81.65,1.1l-6.44,4.75ZM451.66,278.3c-.18-.43-.43-1-.71-1.54l7.12-3.66c.4.77.72,1.51.96,2.07l-7.36,3.13ZM449.8,274.97c-.28-.34-.58-.65-.91-.94l5.24-6.05c.67.58,1.3,1.22,1.86,1.91l-6.18,5.08ZM447.42,273.03c-.3-.13-.65-.24-1.06-.31l1.53-7.85c.98.19,1.9.47,2.74.84l-3.21,7.33ZM442.24,272.55l-.15-8h.18c.47-.01.96-.02,1.46-.02h.48s-.11,8-.11,8h-.38c-.46,0-.88,0-1.3.01h-.18ZM438.49,272.37c-1.6-.28-2.88-.94-3.81-1.97-.13-.14-.25-.29-.38-.45l5.27-4.05-1.08,6.47ZM432.55,265.39c-.04-.27-.09-.54-.13-.83-.05-.35-.11-.72-.18-1.09l7.87-1.41c.08.44.15.88.21,1.3.04.25.07.49.11.72l-7.89,1.32ZM431.68,261.41c-.16-.39-.35-.75-.57-1.1l6.71-4.35c.49.76.92,1.58,1.27,2.43l-7.41,3.02ZM430.12,259.13c-.16-.12-.44-.3-.92-.5l3.14-7.36c.96.41,1.82.89,2.55,1.43l-4.76,6.43ZM427.02,257.96c-.58-.13-1.15-.24-1.7-.32l1.26-7.9c.8.13,1.53.27,2.22.42l-1.78,7.8ZM422.47,257.25c-.84-.11-1.88-.25-2.83-.94-1.67-1.2-1.79-3.11-1.83-3.93l5.35-.31-.69,5.18ZM425.8,252.1c0-.05-.02-.12-.03-.19h.02c0,.07,0,.13.01.19ZM423.51,249.38c-.21-.08-.36-.11-.39-.12.1.02.24.04.4.06v.06ZM417.7,249.36c-.03-.65-.08-1.21-.14-1.71l7.94-.96c.08.69.15,1.43.19,2.27l-7.99.41ZM417.12,245.58c-.14-.41-.27-.59-.32-.66l6.35-4.87c.62.8,1.13,1.77,1.51,2.86l-7.54,2.67ZM416.56,244.93c-1.45-.35-2.7-1.08-3.71-2.2l5.4-4.91-1.69,7.1ZM410.85,239.87c-.24-.35-.47-.62-.73-.86l5.44-5.87c.68.63,1.29,1.33,1.86,2.15l-6.56,4.58ZM408.64,238.03c-.4-.19-.85-.37-1.35-.53l2.46-7.61c.84.27,1.63.58,2.35.93l-3.46,7.21ZM404.37,236.6c-.66-.22-1.31-.46-1.95-.69l2.74-7.52c.59.22,1.19.43,1.8.64l-2.59,7.57ZM399.77,234.99c-.59-.19-1.09-.32-1.51-.4l1.57-7.84c.71.14,1.47.34,2.34.62l-2.4,7.63Z" class="cls-1"></path>
            <path d="M532.76,361.48c-.28-.79-.35-1.56-.37-2.15l7.31-.32-6.94,2.47ZM540.4,359.16s0-.07-.04-.18h.03c0,.07,0,.13.01.18Z" class="cls-1"></path>
          </g>
          <path d="M462.76,335.85c-.32-.41-.73-.93-1.22-1.55l4.69-3.74c.51.64.94,1.18,1.26,1.6l-4.74,3.68ZM460.31,332.77c-.39-.48-.81-.99-1.25-1.51l4.6-3.85c.46.55.89,1.07,1.3,1.57l-4.65,3.79ZM457.79,329.76c-.42-.49-.85-.98-1.29-1.47l4.48-3.99c.46.52.91,1.03,1.35,1.54l-4.55,3.92ZM455.2,326.85c-.44-.48-.88-.95-1.33-1.4l4.31-4.18c.48.49.95,1,1.42,1.51l-4.41,4.07ZM452.52,324.1c-.43-.42-.85-.81-1.27-1.19l-.1-.09,3.98-4.49.12.11c.47.42.95.87,1.44,1.35l-4.18,4.31ZM449.67,321.52c-.49-.43-.99-.86-1.49-1.29l3.9-4.56c.52.44,1.03.89,1.54,1.33l-3.95,4.52ZM446.68,318.96c-.5-.41-1-.83-1.52-1.25l3.79-4.65c.53.43,1.06.87,1.57,1.29l-3.84,4.61ZM443.64,316.48c-.5-.4-1.02-.8-1.54-1.21l3.68-4.74c.55.42,1.08.84,1.6,1.26l-3.73,4.7ZM440.53,314.08c-.51-.39-1.04-.78-1.58-1.18l3.57-4.82c.55.41,1.1.82,1.62,1.22l-3.62,4.79ZM437.37,311.73c-.52-.38-1.05-.76-1.6-1.15l3.47-4.89c.56.4,1.11.79,1.65,1.18l-3.52,4.86ZM434.15,309.45l-1.65-1.14,3.44-4.92,1.64,1.14-3.43,4.92ZM430.85,307.13c-.54-.39-1.09-.78-1.64-1.18l3.52-4.86c.54.39,1.07.77,1.61,1.15l-3.48,4.89ZM427.58,304.77c-.54-.4-1.08-.8-1.62-1.2l3.58-4.82c.53.4,1.06.79,1.59,1.18l-3.55,4.84ZM424.33,302.35l-1.61-1.22,3.64-4.77,1.58,1.2-3.61,4.79ZM421.13,299.91c-.53-.41-1.06-.82-1.59-1.24l3.69-4.73c.52.41,1.04.81,1.57,1.22l-3.66,4.75ZM417.95,297.43l-1.58-1.25,3.74-4.69,1.56,1.23-3.72,4.71ZM414.8,294.92c-.53-.42-1.05-.85-1.57-1.27l3.79-4.65c.51.42,1.02.83,1.54,1.25l-3.76,4.67ZM411.67,292.37c-.52-.43-1.04-.86-1.55-1.29l3.83-4.61c.5.42,1.01.84,1.53,1.26l-3.81,4.63ZM408.56,289.79c-.52-.44-1.06-.92-1.6-1.42l4.09-4.39c.47.44.94.85,1.39,1.24l-3.88,4.58ZM405.44,286.9c-.48-.48-.96-.98-1.46-1.5l4.36-4.12c.45.48.89.93,1.33,1.37l-4.24,4.25ZM402.58,283.88c-.45-.5-.91-1.02-1.36-1.55l4.54-3.92c.43.5.86.98,1.28,1.45l-4.46,4.02ZM399.89,280.76c-.43-.52-.86-1.04-1.29-1.58l4.67-3.77c.42.52.83,1.02,1.24,1.52l-4.62,3.83ZM397.32,277.58c-.42-.53-.83-1.07-1.25-1.62l4.77-3.63c.4.53.8,1.04,1.2,1.55l-4.72,3.7ZM394.85,274.33c-.4-.54-.8-1.09-1.2-1.64l4.86-3.52c.39.53.78,1.06,1.17,1.59l-4.82,3.58ZM392.46,271.04c-.39-.55-.78-1.1-1.17-1.66l4.93-3.42c.38.54.75,1.08,1.13,1.61l-4.89,3.47ZM390.14,267.71c-.38-.56-.76-1.12-1.14-1.69l4.99-3.33c.37.55.73,1.1,1.1,1.64l-4.96,3.38ZM387.89,264.33c-.37-.56-.74-1.13-1.1-1.7l5.05-3.24c.36.56.71,1.11,1.08,1.66l-5.02,3.28ZM385.7,260.92c-.36-.57-.72-1.14-1.07-1.72l5.1-3.15c.35.56.7,1.12,1.05,1.68l-5.08,3.19ZM383.57,257.47c-.35-.58-.7-1.16-1.04-1.74l5.16-3.06c.33.56.67,1.13,1.01,1.69l-5.13,3.11Z" class="cls-1"></path>
          <g>
            <path d="M681.75,234.28l1.93-7.54c.67.17,1.31.43,1.9.76l-3.82,6.78Z" class="cls-1"></path>
            <path d="M526.79,464.54c-.4-.33-.85-.68-1.35-1.04l4.66-6.5c.66.47,1.28.95,1.83,1.41l-5.13,6.14ZM522.38,460.72c-.58-.73-1.08-1.55-1.51-2.43l7.2-3.49c.18.37.38.69.6.98l-6.29,4.94ZM519.61,454.63c-.16-.65-.28-1.27-.39-1.84l-.06-.29,7.85-1.54.06.31c.09.47.19.97.31,1.5l-7.78,1.86ZM518.91,451.67c-.6-.68-1.14-1.41-1.6-2.17l6.82-4.18c.22.36.49.72.78,1.06l-6,5.29ZM515.67,445.73c-.24-.85-.4-1.74-.49-2.65l7.96-.77c.04.45.12.89.24,1.29l-7.71,2.14ZM523.18,440.13l-7.95-.89c.09-.77.22-1.57.4-2.39l7.82,1.71c-.12.55-.21,1.08-.26,1.57ZM524.14,436.06l-7.59-2.51c.24-.72.48-1.39.71-2.01l7.52,2.74c-.2.55-.42,1.15-.63,1.78ZM518.05,430.73c-.2-.64-.35-1.28-.47-1.92l7.86-1.48c.07.35.15.71.26,1.06.14.45.21.94.21,1.45,0,.19,0,.38-.03.6l-7.96-.82c0,.08-.01.15-.01.22,0,.2.02.51.14.89ZM525.28,425.21l-8-.29c.03-.84.12-1.7.27-2.55l7.88,1.4c-.09.49-.14.97-.16,1.44ZM526.05,421.54l-7.51-2.75c.26-.72.57-1.46.92-2.19l7.23,3.43c-.24.52-.46,1.02-.64,1.51ZM527.93,417.74l-6.85-4.13c.4-.65.78-1.26,1.14-1.81l6.72,4.34c-.31.49-.66,1.02-1.01,1.6ZM530.92,412.5l-6.92-2.06,6.58-2.42c.39,1.07.58,1.98.58,2.85,0,.43-.04.84-.13,1.24-.02.11-.06.25-.1.39ZM523.17,411.11s-.02-.1-.1-.33l.09-.03s0,.09,0,.12c0,.14.02.23.02.24ZM521.96,408.25c-.35-.79-.62-1.46-.86-2.11l7.51-2.74c.21.57.44,1.11.66,1.61l-7.32,3.24ZM520.12,402.52c-.14-.87-.22-1.73-.22-2.56l8-.09v.15c0,.33.04.76.11,1.19l-7.89,1.3ZM528.18,397.84l-7.77-1.89c.21-.86.49-1.71.82-2.51l7.38,3.1c-.17.41-.32.85-.43,1.3ZM529.62,394.79l-6.39-4.81c.5-.67,1.05-1.3,1.68-1.93l5.67,5.65c-.37.37-.68.73-.96,1.09ZM532.61,391.89l-5.24-6.05c.37-.32.48-.44.51-.48,0,0-.13.16-.26.45l7.37,3.11c-.55,1.3-1.52,2.21-2.39,2.96ZM527.18,385.5c-.1-.36-.22-.74-.33-1.14l-.22-.74,7.67-2.26.21.7c.13.45.26.88.38,1.28l-7.7,2.15ZM525.8,380.29c-.17-.91-.26-1.74-.29-2.56l7.99-.31c.02.43.07.9.17,1.43l-7.87,1.44ZM533.72,375.38l-7.84-1.6c.17-.82.37-1.62.61-2.36l7.62,2.44c-.15.47-.28.98-.39,1.52ZM534.97,371.89l-6.92-4.01c.45-.77.96-1.51,1.52-2.19l6.17,5.09c-.29.35-.54.71-.77,1.11ZM537.28,369.31l-4.91-6.31c.59-.46,1.23-.91,1.96-1.37l4.28,6.76c-.51.32-.95.63-1.33.93ZM542.31,365.67l-6.61-4.51s-.05.08-.08.12c.03-.05.14-.29.42-1.07l7.52,2.72c-.42,1.16-.78,2.02-1.26,2.74ZM544.57,360.07l-7.53-2.7c.23-.64.48-1.32.75-2l7.44,2.93c-.24.6-.46,1.2-.66,1.77ZM546.31,355.84l-7.18-3.53c.36-.73.74-1.43,1.12-2.06l6.86,4.12c-.27.44-.53.94-.8,1.47ZM548.46,352.52l-5.96-5.34.13-.15c.55-.59,1.19-1.15,1.9-1.69l4.82,6.38c-.35.26-.65.53-.89.79ZM551.34,350.52l-3.65-7.12c.66-.34,1.37-.67,2.11-.98l3.09,7.38c-.55.23-1.06.47-1.54.71ZM555.38,348.89l-2.42-7.62c.7-.22,1.41-.43,2.12-.62l2.05,7.73c-.58.15-1.17.32-1.74.51ZM559.8,347.77l-1.53-7.85c.74-.15,1.47-.27,2.17-.37l1.17,7.92c-.58.08-1.18.19-1.8.31ZM564.23,347.18l-.33-6.25,4.95,3.3c-.47.7-1.89,2.83-4.45,2.95h-.16ZM570.53,341.31l-7.02-3.84c.35-.63.71-1.29,1.09-1.91l6.83,4.17c-.32.52-.62,1.06-.9,1.58ZM562.04,340c.05-.06.1-.13.15-.21l.04.03c-.09.07-.16.14-.2.18ZM563.81,339.2h0s.2-.02.2-.02c-.07,0-.13,0-.2.02ZM572.61,338.12l-5.57-5.75c.22-.21.44-.4.66-.58.5-.4,1.03-.78,1.58-1.13l4.29,6.75c-.31.2-.6.41-.87.62-.03.02-.06.05-.09.08ZM575.73,336.29l-3.25-7.31c.46-.2.9-.39,1.33-.57l.57-.24,3.14,7.36-.62.26c-.38.16-.77.32-1.18.5ZM581.5,333.02l-5.65-5.1,7.33,1.24c-.14.83-.33,1.53-.57,2.12-.26.63-.63,1.21-1.1,1.74ZM575.2,328.26s.04-.13.09-.44l.13.02c-.07.11-.15.24-.22.41,0,0,0,0,0,0ZM583.53,325.79l-7.98-.6.02-.25c.04-.59.09-1.19.14-1.81l7.97.71c-.05.58-.09,1.15-.13,1.7l-.02.25ZM584.01,321.2l-7.88-1.41.09-.46c.13-.63.27-1.25.44-1.85l7.71,2.13c-.12.43-.22.86-.31,1.3l-.06.3ZM585.2,317.27l-7.36-3.15c.31-.73.66-1.45,1.03-2.14l7.03,3.81c-.26.48-.5.97-.71,1.48ZM587.21,313.76l-6.39-4.81c.49-.66,1.02-1.29,1.57-1.87l5.83,5.48c-.35.37-.69.78-1.01,1.2ZM589.99,311l-4.78-6.41.13-.1c.6-.43,1.25-.84,1.94-1.23l3.95,6.96c-.45.26-.87.52-1.24.78ZM593.53,309.09l-3.14-7.36c.68-.29,1.37-.56,2.06-.81l2.76,7.51c-.56.21-1.12.43-1.68.66ZM597.89,307.52l-2.4-7.63c.68-.21,1.34-.41,1.95-.6l2.32,7.65h-.01c-.59.18-1.22.37-1.87.57ZM602.88,305.95l-2.55-6.87,6.06,4.44c-.17.24-.36.46-.56.67-.85.9-1.97,1.4-2.95,1.76ZM608.1,299.09l-7.86-1.49c.11-.57.2-1.18.29-1.82l7.92,1.16c-.11.76-.22,1.48-.34,2.15ZM600.13,298.57l-.05-.12c.33-.12.44-.18.45-.19,0,0-.18.1-.4.31ZM608.9,294.21l-7.83-1.66c.18-.85.38-1.61.61-2.34l7.62,2.45c-.15.47-.28.97-.4,1.55ZM610.14,290.77l-6.84-4.14c.13-.21.26-.41.39-.61.42-.62.9-1.2,1.44-1.73l5.64,5.67c-.17.17-.32.35-.44.53-.06.09-.12.19-.18.29ZM612.23,288.93l-3.68-7.1c.72-.37,1.5-.71,2.33-1.01l2.7,7.53c-.5.18-.95.37-1.35.58ZM615.99,287.67l-1.7-7.82c.72-.16,1.4-.28,2.01-.39,0-.01,0-.03.01-.04l.09.02s.03,0,.04,0v.02s7.59,2.06,7.59,2.06c-.14.5-.24,1.01-.32,1.52l-6.83-1.04.91,5.33c-.55.09-1.16.2-1.8.34ZM624.83,279.34l-7.25-3.38c.35-.75.74-1.48,1.17-2.18l6.81,4.2c-.27.43-.51.89-.73,1.35ZM626.93,276.16l-5.92-5.38c.57-.62,1.17-1.21,1.81-1.75l5.19,6.09c-.38.32-.74.67-1.07,1.04ZM629.84,273.84l-3.92-6.97c.37-.21.75-.41,1.14-.6.38-.18.76-.35,1.14-.5l2.97,7.43c-.22.09-.44.18-.65.29-.23.11-.46.23-.68.35ZM633.46,272.5l-1.79-7.8c.71-.16,1.44-.3,2.23-.43l1.27,7.9c-.56.09-1.14.2-1.71.33ZM638.06,271.8l-.98-7.94c.73-.08,1.33-.15,1.86-.23l.03.18,7.53,1.18c-.18,1.15-.36,2.04-.72,2.88l-6.62-2.77.96,6.45c-.61.09-1.3.17-2.05.26ZM646.95,262.26l-7.81-1.73c.2-.89.43-1.69.7-2.44l7.51,2.75c-.15.41-.28.88-.4,1.42ZM648.17,259.3l-6.29-4.94c.42-.54.9-1.04,1.4-1.5.28-.25.59-.49.92-.72l4.51,6.61s-.06.04-.09.06c-.17.15-.32.31-.46.5ZM650.6,257.86l-2.84-7.48c.68-.26,1.4-.51,2.11-.73l2.42,7.62c-.57.18-1.14.38-1.69.58ZM655.04,256.47l-2.1-7.54-.35-.03c.05-.54.13-1.37.28-2.26l7.9,1.26c-.1.61-.16,1.2-.21,1.74l-5.72-.53,2.41,6.71c-.49.18-1.13.35-2.02.6l-.19.05ZM661.3,245.81l-7.45-2.93c.42-1.06.95-1.99,1.57-2.78l6.25,4.99c-.07.09-.22.3-.38.72ZM661.76,245.02l-1.28-7.19,5.15,5.21c-1.06,1.04-2.36,1.71-3.87,1.98ZM667.84,239.97l-6.62-4.49c.57-.84,1.15-1.53,1.81-2.17l5.55,5.76c-.26.25-.49.53-.75.91ZM670.05,238.08l-3.54-7.18c.73-.36,1.52-.68,2.37-.96l2.51,7.6c-.5.16-.95.35-1.35.54ZM674.3,236.64l-2.58-7.57c.61-.21,1.22-.43,1.82-.65l2.73,7.52c-.65.24-1.31.47-1.97.7ZM678.96,235l-2.41-7.63c.87-.28,1.64-.48,2.35-.62l1.59,7.84c-.43.09-.93.22-1.53.41Z" class="cls-1"></path>
            <path d="M529.81,465.02l5.01-3.57c.6.86.97,1.68,1.11,2.44l-6.13,1.13Z" class="cls-1"></path>
          </g>
          <path d="M616.01,335.85l-4.74-3.68c.33-.42.75-.97,1.26-1.6l4.69,3.74c-.49.61-.9,1.14-1.22,1.55ZM618.46,332.77l-4.65-3.79c.41-.5.84-1.03,1.3-1.57l4.6,3.85c-.44.52-.86,1.03-1.25,1.51ZM620.98,329.76l-4.55-3.92c.44-.51.89-1.03,1.35-1.54l4.48,3.99c-.44.49-.87.99-1.29,1.47ZM623.58,326.85l-4.41-4.07c.47-.51.95-1.02,1.42-1.51l4.31,4.18c-.44.46-.89.93-1.33,1.4ZM626.25,324.1l-4.18-4.31c.49-.48.98-.93,1.45-1.36l.11-.1,3.98,4.49-.09.08c-.43.38-.85.78-1.28,1.19ZM629.1,321.52l-3.95-4.52c.51-.44,1.02-.89,1.54-1.33l3.9,4.56c-.5.43-1,.86-1.49,1.29ZM632.09,318.96l-3.84-4.61c.51-.43,1.04-.86,1.57-1.29l3.79,4.65c-.51.42-1.02.84-1.52,1.25ZM635.14,316.48l-3.73-4.7c.52-.42,1.06-.83,1.6-1.26l3.68,4.74c-.53.41-1.04.81-1.54,1.21ZM638.24,314.08l-3.62-4.79c.53-.4,1.07-.81,1.62-1.22l3.57,4.82c-.54.4-1.06.79-1.58,1.18ZM641.4,311.73l-3.52-4.86c.54-.39,1.09-.78,1.65-1.18l3.47,4.89c-.55.39-1.08.77-1.6,1.15ZM644.62,309.44l-3.44-4.92,1.64-1.14,3.44,4.92-1.64,1.14ZM647.92,307.14l-3.48-4.89c.53-.38,1.07-.76,1.61-1.15l3.52,4.86c-.55.4-1.1.79-1.64,1.18ZM651.2,304.77l-3.55-4.84c.53-.39,1.06-.78,1.59-1.18l3.58,4.82c-.54.4-1.08.8-1.62,1.2ZM654.44,302.35l-3.61-4.79,1.58-1.2,3.64,4.77-1.61,1.22ZM657.64,299.91l-3.66-4.75c.52-.4,1.05-.81,1.57-1.22l3.69,4.73c-.53.41-1.06.83-1.59,1.24ZM660.83,297.43l-3.72-4.71,1.56-1.23,3.74,4.69-1.58,1.25ZM663.98,294.92l-3.76-4.67c.52-.42,1.03-.83,1.54-1.25l3.79,4.65c-.52.42-1.04.85-1.57,1.27ZM667.11,292.37l-3.81-4.63c.52-.42,1.02-.85,1.53-1.26l3.83,4.61c-.51.43-1.03.85-1.55,1.29ZM670.21,289.79l-3.88-4.58c.46-.39.92-.8,1.39-1.24l4.09,4.39c-.54.5-1.08.98-1.6,1.42ZM673.33,286.9l-4.24-4.25c.44-.44.88-.9,1.33-1.37l4.36,4.12c-.49.52-.98,1.02-1.46,1.5ZM676.19,283.88l-4.46-4.02c.42-.47.85-.96,1.28-1.45l4.54,3.92c-.46.53-.91,1.05-1.36,1.55ZM678.89,280.76l-4.62-3.83c.41-.5.82-1,1.24-1.52l4.67,3.77c-.43.54-.87,1.06-1.29,1.58ZM681.45,277.58l-4.72-3.7c.4-.51.8-1.03,1.2-1.55l4.77,3.63c-.42.55-.83,1.09-1.25,1.62ZM683.92,274.33l-4.82-3.58c.39-.52.78-1.05,1.17-1.59l4.86,3.52c-.4.55-.8,1.1-1.2,1.64ZM686.31,271.04l-4.89-3.47c.38-.53.76-1.07,1.13-1.61l4.93,3.42c-.39.56-.78,1.11-1.17,1.66ZM688.63,267.71l-4.96-3.38c.37-.54.74-1.09,1.1-1.64l4.99,3.33c-.38.56-.76,1.13-1.14,1.69ZM690.88,264.33l-5.02-3.28c.36-.55.72-1.1,1.08-1.66l5.05,3.24c-.37.57-.73,1.14-1.1,1.7ZM693.07,260.92l-5.08-3.19c.35-.56.7-1.12,1.05-1.68l5.1,3.15c-.35.57-.71,1.15-1.07,1.72ZM695.2,257.47l-5.13-3.11c.34-.56.68-1.13,1.01-1.69l5.16,3.06c-.34.58-.69,1.16-1.04,1.74Z" class="cls-1"></path>
          <path d="M539.4,486.02c-4.99,0-9.05-4.06-9.05-9.05s4.06-9.05,9.05-9.05,9.05,4.06,9.05,9.05-4.06,9.05-9.05,9.05ZM539.4,473.93c-1.68,0-3.05,1.37-3.05,3.05s1.37,3.05,3.05,3.05,3.05-1.37,3.05-3.05-1.37-3.05-3.05-3.05Z" class="cls-1"></path>
        </g>
        <g>
          <path d="M540,664.7c-4.82,0-8.73-3.92-8.73-8.73s3.92-8.73,8.73-8.73,8.73,3.92,8.73,8.73-3.92,8.73-8.73,8.73ZM540,653.24c-1.51,0-2.73,1.23-2.73,2.73s1.23,2.73,2.73,2.73,2.73-1.23,2.73-2.73-1.23-2.73-2.73-2.73Z" class="cls-1"></path>
          <path d="M539.17,675.07c-3.15,0-6.4-.07-9.41-.25-1.65-.1-2.91-1.52-2.82-3.17.1-1.65,1.52-2.92,3.17-2.82,6.68.4,14.6.24,19.78-.03,1.67-.08,3.07,1.18,3.16,2.83s-1.18,3.07-2.83,3.16c-3.02.16-6.95.28-11.05.28Z" class="cls-1"></path>
          <path d="M574.22,899.98c-.32,0-.65-.05-.97-.16-7.61-2.59-11.58-3.25-18.95-3.82-7.48-.58-21.12-.58-28.61,0-7.37.57-11.34,1.23-18.95,3.82-1.57.54-3.27-.3-3.81-1.87-.53-1.57.3-3.27,1.87-3.81,8.33-2.84,12.84-3.54,20.42-4.12,7.73-.59,21.8-.59,29.53,0,7.58.58,12.09,1.28,20.42,4.12,1.57.53,2.41,2.24,1.87,3.81-.42,1.25-1.59,2.03-2.84,2.03Z" class="cls-1"></path>
          <g>
            <path d="M532.65,651.53s-.03-.06-.05-.1h.01s.02.06.04.1ZM532.85,651.28l6.64-3.91c.39.66.66,1.28.83,1.9l-7.46,2.01Z" class="cls-1"></path>
            <path d="M439.09,766.08l-7.82-1.68c-.03.14-.03.25-.03.3,0-.15-.04-.32-.07-.53l-.05-.37,5.85-.83.02.64c.31-.15.69-.4,1.04-.79l1.01-.14.05.31c.08.53.16,1.08.16,1.72,0,.47-.05.92-.14,1.37ZM440.05,763.71l-.34-7.99c.6-.03,1.12-.07,1.57-.14l1.22,7.91c-.75.12-1.55.19-2.45.23ZM446.32,762.35l-3.1-7.38c.6-.25,1.11-.49,1.56-.72l3.64,7.12c-.63.32-1.32.64-2.1.97ZM436.9,761.37l-5.4-3.13c1.37-2.36,4.07-2.44,5.22-2.48l.18,5.61ZM451.7,759.26l-5.14-6.13c.3-.25.57-.53.81-.84l6.31,4.92c-.59.76-1.24,1.43-1.98,2.05ZM455.87,752.87l-7.85-1.54c.08-.38.11-1.17.13-1.43l7.99.4c-.04.81-.1,1.74-.27,2.58ZM456.29,747.53h-.1c.09-.17.14-.3.16-.39-.03.11-.04.24-.06.39ZM454.03,747.27l-5.69-.66c.12-1.01.43-3.71,2.86-4.94l2.83,5.59ZM458.74,746.52l-6.23-5.02s.17-.22.38-.74l7.42,3c-.45,1.11-.96,2.01-1.57,2.77ZM461.37,740.46l-7.7-2.16c.2-.71.4-1.43.63-2.11l7.6,2.5c-.19.57-.35,1.17-.52,1.76ZM461.97,737.58c.13-.04.23-.09.32-.13v.03c-.1.04-.21.07-.32.1ZM462.14,736.97l-5.82-4.77c.95-1.15,2.11-1.94,3.47-2.32l2.35,7.09ZM466.67,734.33l-6.4-4.8c.15-.2.3-.48.44-.84l7.44,2.94c-.41,1.03-.89,1.91-1.48,2.69ZM469.16,728.09l-7.82-1.67.14-.66c.1-.5.2-.97.31-1.41l6.06,1.45-1.38-6.76c.41-.08.97-.18,1.65-.3l.46-.08,1.35,7.88-.46.08c-.05.24-.1.48-.15.74l-.15.72ZM473.02,725.99l-1.59-7.84c.59-.12,1.21-.25,1.84-.4l1.86,7.78c-.72.17-1.42.32-2.1.46ZM478.33,724.64l-2.44-7.62c.58-.18,1.12-.38,1.61-.58l3.01,7.41c-.68.28-1.41.54-2.18.79ZM483.9,722.11l-4.4-6.68c.22-.14.41-.29.56-.42.09-.08.18-.17.27-.27l5.83,5.48c-.24.26-.49.5-.76.74-.45.4-.95.79-1.5,1.15ZM488.51,716.84l-7.11-3.67c.21-.42.42-.88.6-1.39l7.51,2.76c-.3.82-.64,1.59-1.01,2.3ZM490.51,711.17l-7.79-1.83c.15-.66.28-1.27.38-1.82l5.57,1.07-1.24-6.77c.5-.09,1-.21,1.49-.37l2.38,7.64c-.12.04-.25.08-.38.11-.12.6-.25,1.26-.41,1.96ZM494.76,707.67l-3.71-7.09c.45-.24.88-.5,1.29-.78l4.57,6.57c-.68.48-1.41.91-2.15,1.3ZM499.8,703.9l-5.76-5.55c.34-.35.66-.73.94-1.12l6.46,4.71c-.5.69-1.05,1.35-1.65,1.96ZM503.38,698.63l-7.29-3.3c.15-.34.29-.75.41-1.22l7.76,1.92c-.23.94-.53,1.81-.88,2.59ZM504.83,692.4l-7.98-.63c.04-.54.07-1.12.07-1.72l8,.04c0,.79-.04,1.57-.09,2.31ZM496.82,687.39c-.05-.64-.12-1.23-.2-1.78l4.89-.7-.12.85c.57-.21,1.1-.58,1.53-1.05l1.61-.23c.06.4.11.83.16,1.28l.43-7.26c.22.01.44.02.62.01.18-.01.37-.03.56-.06l1.18,7.91c-.41.06-.83.11-1.26.13-.46.03-.94.02-1.47,0,0,.07.01.14.02.21l-7.97.67ZM511.6,685.07l-3.66-7.12c.32-.16.62-.36.89-.6l5.22,6.06c-.75.64-1.57,1.2-2.45,1.65ZM496.01,682.89l-.08-.79c0-1.99,1.52-4.1,4.34-4.1.61,0,1.31.09,2.15.2l-.48,3.5,1.9-.38-1.9.38-.05.4h-1.93l-3.96.79ZM516.83,679.99l-7-3.87c.07-.12.13-.24.18-.37.08-.18.16-.41.24-.67l7.68,2.23c-.18.62-.39,1.21-.63,1.73-.15.33-.31.64-.47.95ZM517.18,673.88l-.02-.33-6.47-.83c.05-.42.1-.82.14-1.18.03-.29.06-.56.09-.81l6.15.75-.25-5.6h.14c.52-.03,1.12-.06,1.76-.1l.6,7.98c-.72.05-1.41.08-2,.11h-.14ZM522.89,673.27l-1.74-7.81c.46-.1.85-.22,1.15-.36l3.28,7.3c-.79.36-1.7.65-2.69.87ZM529.76,668.49l-7.23-3.42c-.04.09-.05.15-.06.18.12-.79.36-1.52.7-2.19l7.13,3.63c.06-.12.08-.21.08-.21-.11.71-.32,1.38-.61,2.02ZM531.14,666.25l-4.36-6.71c.43-.28.76-.51,1.05-.79l5.46,5.85c-.76.71-1.52,1.23-2.15,1.64ZM535.91,661.11l-7.11-3.67c.19-.37.37-.8.53-1.28l7.59,2.51c-.29.87-.63,1.69-1.01,2.43ZM537.67,656.28l-7.22-3.44c.43-.9.97-1.73,1.64-2.53l6.13,5.13c-.17.2-.37.46-.55.84Z" class="cls-1"></path>
            <path d="M435.49,771.39l-5.6-5.71c.23-.23.45-.44.64-.64l5.75,5.57c-.23.24-.5.5-.78.79Z" class="cls-1"></path>
          </g>
          <path d="M496.34,973.52c-.24,0-.48-.03-.72-.09-1.61-.39-2.59-2.02-2.2-3.63,7.39-30.16,4.86-63.62-7.53-99.47-10.56-30.55-28.28-62.93-52.66-96.24-.98-1.34-.69-3.21.65-4.19,1.34-.98,3.21-.69,4.19.65,24.73,33.79,42.73,66.7,53.49,97.82,12.78,36.95,15.36,71.56,7.69,102.86-.34,1.37-1.56,2.29-2.91,2.29Z" class="cls-1"></path>
          <g>
            <path d="M382.75,707.45c.32.16.62.33.93.51l-2.8,3.62c-.22-.23-.45-.45-.66-.7l2.53-3.43Z" class="cls-1"></path>
            <path d="M385.4,709.06c.55.39,1.09.8,1.63,1.2l-3.43,3.98c-.46-.44-.93-.87-1.38-1.32l3.18-3.87Z" class="cls-1"></path>
            <polygon points="388.57 711.55 390.08 712.88 386.41 716.86 385.01 715.55 388.57 711.55" class="cls-1"></polygon>
            <polygon points="391.56 714.22 393.02 715.59 389.18 719.54 387.8 718.19 391.56 714.22" class="cls-1"></polygon>
            <polygon points="394.45 716.98 395.86 718.4 391.91 722.28 390.55 720.9 394.45 716.98" class="cls-1"></polygon>
            <polygon points="397.25 719.83 398.62 721.28 394.58 725.07 393.25 723.66 397.25 719.83" class="cls-1"></polygon>
            <polygon points="399.98 722.75 401.31 724.23 397.19 727.92 395.89 726.49 399.98 722.75" class="cls-1"></polygon>
            <polygon points="402.64 725.72 403.94 727.24 399.73 730.83 398.47 729.37 402.64 725.72" class="cls-1"></polygon>
            <polygon points="405.2 728.72 406.48 730.19 402.32 733.83 401.02 732.33 405.2 728.72" class="cls-1"></polygon>
            <polygon points="407.78 731.65 409.09 733.12 404.88 736.8 403.6 735.32 407.78 731.65" class="cls-1"></polygon>
            <polygon points="410.4 734.59 411.71 736.07 407.42 739.78 406.15 738.29 410.4 734.59" class="cls-1"></polygon>
            <polygon points="413.01 737.56 414.31 739.05 409.92 742.77 408.67 741.27 413.01 737.56" class="cls-1"></polygon>
            <polygon points="415.6 740.55 416.88 742.06 412.4 745.78 411.17 744.27 415.6 740.55" class="cls-1"></polygon>
            <polygon points="418.16 743.58 419.42 745.1 414.84 748.81 413.62 747.29 418.16 743.58" class="cls-1"></polygon>
            <polygon points="420.68 746.64 421.92 748.18 417.24 751.87 416.04 750.34 420.68 746.64" class="cls-1"></polygon>
            <polygon points="423.16 749.74 424.38 751.3 419.6 754.96 418.42 753.41 423.16 749.74" class="cls-1"></polygon>
            <polygon points="425.58 752.89 426.77 754.48 421.94 758.06 420.77 756.5 425.58 752.89" class="cls-1"></polygon>
            <polygon points="427.94 756.09 429.1 757.7 424.22 761.19 423.09 759.62 427.94 756.09" class="cls-1"></polygon>
            <path d="M430.24,759.33c.37.55.75,1.1,1.1,1.66l-4.86,3.34c-.39-.52-.76-1.04-1.14-1.57l4.89-3.43Z" class="cls-1"></path>
            <path d="M432.41,762.68c.34.57.68,1.14,1.01,1.72l-4.62,3.04c-.4-.51-.78-1.03-1.16-1.55l4.77-3.21Z" class="cls-1"></path>
            <path d="M434.37,766.18c.16.3.31.61.46.91l-4.21,2.67c-.21-.26-.42-.51-.62-.77l4.37-2.81Z" class="cls-1"></path>
          </g>
          <path d="M471.41,936.63c-1.18,0-2.3-.7-2.78-1.86-.63-1.53.1-3.29,1.64-3.91,7.91-3.25,16.87-5.87,22.82-6.67,1.64-.22,3.15.93,3.38,2.57.22,1.64-.93,3.15-2.57,3.38-5.41.73-13.99,3.25-21.35,6.28-.37.15-.76.23-1.14.23Z" class="cls-1"></path>
          <path d="M315.18,720.63c-.87,0-1.74-.38-2.33-1.11-1.04-1.29-.85-3.18.44-4.22,17.61-14.31,35.73-18.01,62.56-12.77.05.01.1.02.15.03.02-.1.05-.24.07-.41,1.63-11.69,8.49-40.33,15.1-56.86.62-1.54,2.36-2.29,3.9-1.67,1.54.62,2.29,2.36,1.67,3.9-6.22,15.55-13.12,43.92-14.73,55.46-.11.78-.44,3.17-2.45,4.6-1.31.93-2.94,1.21-4.86.84-24.87-4.86-41.57-1.52-57.63,11.54-.56.45-1.23.67-1.89.67Z" class="cls-1"></path>
          <path d="M540.04,999.29c-3,0-17.3-.17-27.48-.95-28.05-2.16-30.24-4.39-31.68-8.14-1.59-4.12-16.2-41.09-38.6-69.55-10.18-12.93-22.46-25.52-35.46-38.85-13.13-13.46-28.02-28.72-43.36-47-26.79-31.92-39.56-52.18-68.31-108.36-1.03-2.01-2.09-4.08,2.44-31.71,2.39-14.59,5.69-31.85,8.39-43.95,1.69-7.57,4.9-20.88,7.96-32.21,1.72-6.36,3.19-11.4,4.4-14.98,1.57-4.69,3.72-11.11,9.7-9.93,36,7.11,86.2,13.42,112.06,15.18,25.46,1.74,67.89,3.44,99.78,3.33h.24c31.9.12,74.33-1.6,99.8-3.33,25.87-1.76,76.06-8.07,112.06-15.18,5.97-1.18,8.12,5.24,9.7,9.93,1.2,3.58,2.68,8.62,4.4,14.98,3.06,11.33,6.27,24.64,7.96,32.21,2.7,12.1,6,29.36,8.39,43.95,4.53,27.63,3.47,29.71,2.44,31.71-28.75,56.18-41.52,76.44-68.31,108.36-15.34,18.28-30.22,33.54-43.36,47-13,13.33-25.28,25.92-35.46,38.85-22.4,28.46-37.01,65.43-38.6,69.55-1.45,3.75-3.63,5.98-31.68,8.14-10.18.78-24.42.95-27.4.95ZM491.2,983.69c2.76.66,9.42,1.7,22.28,2.69,9.8.75,23.65.92,26.56.92s16.68-.16,26.48-.92c12.85-.99,19.52-2.02,22.28-2.69,3.84-9.53,18.3-43.53,39.5-70.46,10.57-13.43,23.07-26.25,36.3-39.81,12.98-13.31,27.7-28.4,42.75-46.33,24.35-29.01,36.76-47.42,66.41-105.31.2-6.79-6.01-43.99-11.45-68.38-3.36-15.04-9.33-38.42-12.38-47.12-36.06,6.85-84.01,12.82-109.21,14.53-25.68,1.75-68.49,3.46-100.63,3.36h-.2c-32.15.11-74.94-1.61-100.61-3.36-25.2-1.72-73.15-7.68-109.21-14.53-3.05,8.7-9.02,32.08-12.38,47.12-5.44,24.39-11.65,61.59-11.45,68.38,29.65,57.89,42.06,76.3,66.41,105.31,15.05,17.93,29.77,33.02,42.75,46.33,13.23,13.56,25.73,26.37,36.3,39.81,21.19,26.93,35.66,60.93,39.5,70.46Z" class="cls-1"></path>
          <path d="M529.11,651.67c-10.03,0-58.53-.9-95.38-5.05-39.36-4.43-82.81-13.46-96.65-17.99-1.57-.52-2.43-2.21-1.92-3.78.52-1.57,2.21-2.43,3.78-1.92,13.59,4.44,56.47,13.34,95.45,17.73,36.57,4.12,84.74,5.01,94.7,5.01,1.66,0,3,1.34,3,3s-1.34,3-3,3Z" class="cls-1"></path>
          <g>
            <path d="M547.35,651.53s.03-.07.04-.1h.01s-.04.07-.05.1ZM547.12,651.27l-7.43-1.99c.17-.62.44-1.25.83-1.91l6.6,3.9Z" class="cls-1"></path>
            <path d="M640.92,766.09c-.1-.45-.14-.9-.14-1.38,0-.63.08-1.18.16-1.7l.05-.32,1.01.14c.35.39.73.64,1.04.79l.02-.64,5.85.83-.05.37c-.03.21-.07.39-.07.55,0-.07,0-.18-.03-.33l-7.82,1.68ZM639.95,763.71c-.9-.04-1.7-.11-2.45-.23l1.22-7.91c.45.07.96.12,1.57.14l-.34,7.99ZM633.68,762.35c-.79-.33-1.47-.65-2.1-.97l3.64-7.12c.45.23.96.46,1.56.72l-3.1,7.38ZM643.1,761.37l.18-5.61c1.15.04,3.85.12,5.22,2.48l-5.4,3.13ZM628.3,759.26c-.74-.62-1.39-1.29-1.98-2.05l6.31-4.92c.24.31.5.58.81.84l-5.14,6.13ZM624.13,752.87c-.17-.84-.23-1.78-.27-2.58l7.99-.4c.01.26.05,1.05.13,1.43l-7.85,1.54ZM623.71,747.53c-.02-.14-.03-.27-.06-.39.02.08.07.22.16.37h-.1ZM625.97,747.27l2.83-5.59c2.43,1.23,2.74,3.92,2.86,4.94l-5.69.66ZM621.26,746.52c-.61-.75-1.12-1.66-1.57-2.77l7.42-3c.21.52.35.71.38.74l-6.23,5.02ZM618.63,740.46c-.17-.6-.34-1.2-.52-1.76l7.6-2.5c.22.68.43,1.39.63,2.11l-7.7,2.16ZM617.97,737.56l-.27-.08v-.03c.08.04.17.08.27.12ZM617.86,736.98l2.31-7.11.07.02c1.33.38,2.49,1.16,3.44,2.32l-5.82,4.78ZM613.33,734.33c-.59-.78-1.07-1.66-1.48-2.69l7.44-2.94c.14.35.29.64.44.84l-6.4,4.8ZM610.84,728.09l-.15-.72c-.05-.25-.1-.5-.15-.74l-.46-.08,1.35-7.88.46.08c.68.12,1.25.21,1.65.3l-1.38,6.76,6.06-1.45c.1.44.2.91.31,1.41l.14.66-7.82,1.67ZM606.98,725.99c-.68-.14-1.39-.29-2.1-.46l1.86-7.78c.63.15,1.24.28,1.84.4l-1.59,7.84ZM601.67,724.64c-.77-.25-1.51-.51-2.18-.79l3.01-7.41c.49.2,1.03.39,1.61.58l-2.44,7.62ZM596.1,722.11c-.55-.36-1.05-.74-1.5-1.14-.26-.24-.52-.48-.76-.74l5.83-5.48c.09.09.18.18.27.27.15.14.34.28.56.42l-4.4,6.68ZM591.49,716.84c-.37-.71-.71-1.49-1.01-2.31l7.51-2.76c.19.51.39.97.6,1.39l-7.11,3.67ZM589.49,711.17c-.16-.7-.3-1.36-.41-1.96-.13-.04-.25-.07-.38-.11l2.38-7.64c.49.15.99.28,1.49.37l-1.24,6.77,5.57-1.07c.1.55.23,1.16.38,1.82l-7.79,1.83ZM585.24,707.67c-.74-.39-1.47-.83-2.15-1.3l4.57-6.57c.41.29.85.55,1.29.78l-3.71,7.09ZM580.2,703.9c-.59-.61-1.14-1.27-1.65-1.96l6.46-4.71c.29.39.6.77.94,1.12l-5.76,5.55ZM576.62,698.63c-.35-.78-.65-1.66-.89-2.6l7.77-1.92c.12.47.25.88.41,1.22l-7.29,3.3ZM575.17,692.4c-.06-.74-.09-1.52-.09-2.31l8-.04c0,.6.03,1.18.07,1.72l-7.98.63ZM583.18,687.39l-7.97-.67c0-.07.01-.14.02-.21-.53.03-1.02.03-1.46,0-.44-.03-.86-.07-1.27-.13l1.18-7.91c.18.03.37.05.57.06.16,0,.39,0,.61-.01l.43,7.27c.05-.45.1-.88.16-1.29l1.61.23c.43.48.97.85,1.53,1.06l-.12-.86,4.9.7c-.08.54-.15,1.14-.2,1.78ZM568.4,685.07c-.88-.45-1.71-1.01-2.45-1.65l5.22-6.06c.27.23.57.43.89.59l-3.66,7.12ZM583.99,682.89l-5.94-1.19-.48-3.5c.85-.12,1.55-.2,2.15-.2,2.82,0,4.34,2.11,4.34,4.1,0,.26-.03.53-.08.79ZM580.07,682.1h-1.97s-.05-.4-.05-.4l2.02.4ZM563.17,679.99c-.17-.31-.33-.62-.47-.95-.24-.53-.45-1.11-.63-1.74l7.68-2.23c.08.27.16.49.24.68.05.12.11.24.18.36l-7,3.88ZM562.82,673.88h-.14c-.6-.03-1.28-.06-2-.12l.6-7.98c.63.05,1.23.07,1.76.1h.14s-.25,5.61-.25,5.61l6.15-.75c.03.24.06.51.09.81.04.36.08.76.14,1.18l-6.47.83-.02.33ZM557.11,673.27c-.99-.22-1.9-.51-2.69-.87l3.28-7.3c.3.13.68.25,1.15.36l-1.74,7.81ZM550.24,668.49c-.3-.63-.5-1.31-.61-2.01,0,0,.02.09.08.21l7.13-3.63c.34.67.57,1.41.7,2.19,0-.02-.02-.09-.06-.18l-7.23,3.42ZM548.87,666.25c-.63-.41-1.39-.93-2.15-1.64l5.46-5.85c.3.28.62.51,1.05.79l-4.36,6.71ZM544.09,661.11c-.38-.74-.72-1.56-1.01-2.43l7.59-2.51c.16.48.33.91.53,1.28l-7.11,3.67ZM542.33,656.28c-.18-.38-.38-.64-.55-.84l6.13-5.13c.67.8,1.21,1.63,1.64,2.53l-7.22,3.44Z" class="cls-1"></path>
            <path d="M644.51,771.39c-.29-.28-.55-.54-.78-.79l5.75-5.57c.19.2.4.41.64.64l-5.6,5.71Z" class="cls-1"></path>
          </g>
          <path d="M583.66,973.52c-1.35,0-2.58-.92-2.91-2.29-7.67-31.3-5.09-65.9,7.69-102.86,10.76-31.12,28.76-64.03,53.49-97.82.98-1.34,2.85-1.63,4.19-.65,1.34.98,1.63,2.86.65,4.19-24.38,33.3-42.1,65.68-52.66,96.24-12.39,35.85-14.93,69.31-7.53,99.47.39,1.61-.59,3.23-2.2,3.63-.24.06-.48.09-.72.09Z" class="cls-1"></path>
          <g>
            <path d="M699.79,710.87c-.21.24-.44.47-.66.7l-2.8-3.62c.31-.18.61-.35.93-.51l2.54,3.43Z" class="cls-1"></path>
            <path d="M697.78,712.92c-.45.46-.92.89-1.38,1.32l-3.43-3.98c.54-.41,1.07-.82,1.63-1.21l3.18,3.87Z" class="cls-1"></path>
            <polygon points="694.99 715.55 693.59 716.86 689.92 712.88 691.43 711.55 694.99 715.55" class="cls-1"></polygon>
            <polygon points="692.19 718.19 690.82 719.55 686.98 715.59 688.44 714.22 692.19 718.19" class="cls-1"></polygon>
            <polygon points="689.45 720.91 688.09 722.28 684.14 718.4 685.55 716.99 689.45 720.91" class="cls-1"></polygon>
            <polygon points="686.75 723.67 685.42 725.07 681.38 721.29 682.75 719.84 686.75 723.67" class="cls-1"></polygon>
            <polygon points="684.11 726.49 682.81 727.92 678.68 724.23 680.02 722.75 684.11 726.49" class="cls-1"></polygon>
            <polygon points="681.53 729.37 680.26 730.83 676.06 727.24 677.36 725.73 681.53 729.37" class="cls-1"></polygon>
            <polygon points="678.97 732.35 677.65 733.84 673.52 730.17 674.8 728.71 678.97 732.35" class="cls-1"></polygon>
            <polygon points="676.35 735.32 675.06 736.8 670.88 733.08 672.2 731.62 676.35 735.32" class="cls-1"></polygon>
            <polygon points="673.78 738.27 672.5 739.75 668.24 736.01 669.56 734.54 673.78 738.27" class="cls-1"></polygon>
            <polygon points="671.23 741.23 669.97 742.72 665.61 738.97 666.92 737.48 671.23 741.23" class="cls-1"></polygon>
            <polygon points="668.72 744.21 667.48 745.71 663.01 741.96 664.31 740.46 668.72 744.21" class="cls-1"></polygon>
            <polygon points="666.25 747.21 665.03 748.73 660.45 745 661.73 743.48 666.25 747.21" class="cls-1"></polygon>
            <polygon points="663.82 750.25 662.62 751.78 657.94 748.08 659.19 746.54 663.82 750.25" class="cls-1"></polygon>
            <polygon points="661.44 753.31 660.27 754.86 655.48 751.21 656.7 749.64 661.44 753.31" class="cls-1"></polygon>
            <polygon points="659.1 756.4 657.95 757.96 653.1 754.41 654.28 752.8 659.1 756.4" class="cls-1"></polygon>
            <polygon points="656.81 759.52 655.69 761.1 650.78 757.65 651.93 756.02 656.81 759.52" class="cls-1"></polygon>
            <path d="M654.57,762.68c-.37.53-.73,1.06-1.12,1.58l-4.9-3.29c.35-.57.73-1.12,1.09-1.67l4.92,3.38Z" class="cls-1"></path>
            <path d="M652.33,765.83c-.37.52-.75,1.05-1.14,1.56l-4.66-2.97c.32-.58.65-1.16.99-1.74l4.81,3.15Z" class="cls-1"></path>
            <path d="M650.01,768.95c-.19.27-.4.52-.61.78l-4.25-2.6c.14-.31.29-.62.44-.92l4.41,2.74Z" class="cls-1"></path>
          </g>
          <path d="M608.59,936.63c-.38,0-.77-.07-1.14-.23-7.36-3.02-15.94-5.55-21.35-6.28-1.64-.22-2.79-1.73-2.57-3.38.22-1.64,1.74-2.79,3.38-2.57,5.96.81,14.92,3.42,22.83,6.67,1.53.63,2.26,2.38,1.64,3.91-.48,1.16-1.6,1.86-2.78,1.86Z" class="cls-1"></path>
          <path d="M764.82,720.63c-.67,0-1.33-.22-1.89-.67-16.06-13.05-32.76-16.39-57.63-11.54-1.92.37-3.55.09-4.86-.84-2.01-1.44-2.34-3.82-2.45-4.6-1.61-11.53-8.51-39.9-14.73-55.46-.62-1.54.13-3.28,1.67-3.9,1.54-.61,3.28.13,3.9,1.67,6.38,15.95,13.45,45.03,15.1,56.86.02.17.05.31.07.41.04,0,.09-.02.15-.03,26.83-5.24,44.95-1.54,62.56,12.77,1.29,1.04,1.48,2.93.44,4.22-.59.73-1.46,1.11-2.33,1.11Z" class="cls-1"></path>
          <g>
            <path d="M536.42,640.48c-14.89,0-59.97-.31-94.51-3.76-37-3.7-78.77-11.44-97.79-16.79-1.59-.45-2.52-2.1-2.08-3.7.45-1.59,2.1-2.52,3.7-2.08,18.76,5.28,60.08,12.93,96.76,16.59,37.48,3.75,87.58,3.76,97.25,3.73h.01c1.65,0,2.99,1.34,3,2.99,0,1.66-1.33,3.01-2.99,3.01-.83,0-1.96,0-3.36,0Z" class="cls-1"></path>
            <path d="M543.58,640.48c-1.4,0-2.52,0-3.36,0-1.66,0-2.99-1.35-2.99-3.01,0-1.65,1.35-2.99,3-2.99h.01c9.66.03,59.76.02,97.25-3.73,36.67-3.67,77.99-11.32,96.76-16.59,1.6-.45,3.25.48,3.7,2.08.45,1.59-.48,3.25-2.08,3.7-19.01,5.35-60.79,13.09-97.79,16.79-34.54,3.45-79.62,3.76-94.51,3.76Z" class="cls-1"></path>
          </g>
          <path d="M550.89,651.67c-1.66,0-3-1.34-3-3s1.34-3,3-3c9.96,0,58.14-.89,94.7-5.01,38.98-4.39,81.86-13.29,95.45-17.73,1.57-.51,3.27.34,3.78,1.92.51,1.57-.34,3.27-1.92,3.78-13.83,4.52-57.29,13.55-96.65,17.99-36.84,4.15-85.34,5.05-95.38,5.05Z" class="cls-1"></path>
        </g>
      </g>
    </g>
  </g>
</svg>